<?xml version="1.0" encoding="utf-8"?>
<!-- Generator: Adobe Illustrator 20.1.0, SVG Export Plug-In . SVG Version: 6.00 Build 0)  -->
<svg version="1.1" xmlns="http://www.w3.org/2000/svg" xmlns:xlink="http://www.w3.org/1999/xlink" x="0px" y="0px"
	 viewBox="0 0 480 407" style="enable-background:new 0 0 480 407;" xml:space="preserve">
<style type="text/css">
	.st0{fill:#FFFFFF;stroke:#CCCCCC;stroke-width:1.5;stroke-miterlimit:10;}
	.st1{fill:#C4B0C7;stroke:#CCCCCC;stroke-width:1.5;stroke-miterlimit:10;}
	.st2{fill:#A9BDB0;}
	.st3{fill:none;stroke:#FFFFFF;stroke-width:0.25;stroke-miterlimit:10;}
	.st4{fill:url(#SVGID_1_);stroke:#CCCCCC;stroke-width:1.5;stroke-miterlimit:10;}
	.st5{fill:url(#SVGID_2_);stroke:#CCCCCC;stroke-width:1.5;stroke-miterlimit:10;}
	.st6{fill:url(#SVGID_3_);stroke:#CCCCCC;stroke-width:1.5;stroke-miterlimit:10;}
	.st7{fill:none;}
	.st8{font-family:'FranklinGothicLightSSiLight';}
	.st9{font-size:15px;}
	.st10{font-size:14.7539px;}
	.st11{fill:none;stroke:#000000;stroke-miterlimit:10;}
	.st12{font-size:13.5px;}
</style>
<g id="Map">
	<path class="st0" d="M413.8,66.9h-21.2c-3.4,0-6.2-2.8-6.2-6.2V39.5c0-3.4,2.8-6.2,6.2-6.2h21.2c3.4,0,6.2,2.8,6.2,6.2v21.2
		C420,64.1,417.3,66.9,413.8,66.9z"/>
	<path class="st0" d="M380.3,134h-21.2c-3.4,0-6.2-2.8-6.2-6.2v-21.2c0-3.4,2.8-6.2,6.2-6.2h21.2c3.4,0,6.2,2.8,6.2,6.2v21.2
		C386.5,131.2,383.7,134,380.3,134z"/>
	<path class="st0" d="M413.8,100.4h-21.2c-3.4,0-6.2-2.8-6.2-6.2V73.1c0-3.4,2.8-6.2,6.2-6.2h21.2c3.4,0,6.2,2.8,6.2,6.2v21.2
		C420,97.7,417.3,100.4,413.8,100.4z"/>
	<path class="st0" d="M380.3,100.4h-21.2c-3.4,0-6.2-2.8-6.2-6.2V73.1c0-3.4,2.8-6.2,6.2-6.2h21.2c3.4,0,6.2,2.8,6.2,6.2v21.2
		C386.5,97.7,383.7,100.4,380.3,100.4z"/>
	<path class="st0" d="M44.7,296.3H23.5c-3.4,0-6.2-2.8-6.2-6.2v-21.2c0-3.4,2.8-6.2,6.2-6.2h21.2c3.4,0,6.2,2.8,6.2,6.2v21.2
		C50.9,293.5,48.1,296.3,44.7,296.3z"/>
	<path class="st0" d="M78.3,201.1H57.1c-3.4,0-6.2-2.8-6.2-6.2v-21.2c0-3.4,2.8-6.2,6.2-6.2h21.2c3.4,0,6.2,2.8,6.2,6.2v21.2
		C84.5,198.4,81.7,201.1,78.3,201.1z"/>
	<path class="st0" d="M78.3,167.6H57.1c-3.4,0-6.2-2.8-6.2-6.2v-21.2c0-3.4,2.8-6.2,6.2-6.2h21.2c3.4,0,6.2,2.8,6.2,6.2v21.2
		C84.5,164.8,81.7,167.6,78.3,167.6z"/>
	<path class="st0" d="M78.3,134H57.1c-3.4,0-6.2-2.8-6.2-6.2v-21.2c0-3.4,2.8-6.2,6.2-6.2h21.2c3.4,0,6.2,2.8,6.2,6.2v21.2
		C84.5,131.2,81.7,134,78.3,134z"/>
	<path class="st0" d="M111.8,134H90.6c-3.4,0-6.2-2.8-6.2-6.2v-21.2c0-3.4,2.8-6.2,6.2-6.2h21.2c3.4,0,6.2,2.8,6.2,6.2v21.2
		C118,131.2,115.2,134,111.8,134z"/>
	<path class="st0" d="M111.8,167.6H90.6c-3.4,0-6.2-2.8-6.2-6.2v-21.2c0-3.4,2.8-6.2,6.2-6.2h21.2c3.4,0,6.2,2.8,6.2,6.2v21.2
		C118,164.8,115.2,167.6,111.8,167.6z"/>
	<path class="st1" d="M111.8,234.6H90.6c-3.4,0-6.2-2.8-6.2-6.2v-21.2c0-3.4,2.8-6.2,6.2-6.2h21.2c3.4,0,6.2,2.8,6.2,6.2v21.2
		C118,231.9,115.2,234.6,111.8,234.6z"/>
	<path class="st0" d="M145.4,234.6h-21.2c-3.4,0-6.2-2.8-6.2-6.2v-21.2c0-3.4,2.8-6.2,6.2-6.2h21.2c3.4,0,6.2,2.8,6.2,6.2v21.2
		C151.6,231.9,148.8,234.6,145.4,234.6z"/>
	<path class="st0" d="M145.4,201.1h-21.2c-3.4,0-6.2-2.8-6.2-6.2v-21.2c0-3.4,2.8-6.2,6.2-6.2h21.2c3.4,0,6.2,2.8,6.2,6.2v21.2
		C151.6,198.4,148.8,201.1,145.4,201.1z"/>
	<path class="st0" d="M145.4,167.6h-21.2c-3.4,0-6.2-2.8-6.2-6.2v-21.2c0-3.4,2.8-6.2,6.2-6.2h21.2c3.4,0,6.2,2.8,6.2,6.2v21.2
		C151.6,164.8,148.8,167.6,145.4,167.6z"/>
	<path class="st0" d="M145.4,134h-21.2c-3.4,0-6.2-2.8-6.2-6.2v-21.2c0-3.4,2.8-6.2,6.2-6.2h21.2c3.4,0,6.2,2.8,6.2,6.2v21.2
		C151.6,131.2,148.8,134,145.4,134z"/>
	<path class="st2" d="M178.9,134h-21.2c-3.4,0-6.2-2.8-6.2-6.2v-21.2c0-3.4,2.8-6.2,6.2-6.2h21.2c3.4,0,6.2,2.8,6.2,6.2v21.2
		C185.1,131.2,182.4,134,178.9,134z"/>
	<path class="st1" d="M178.9,167.6h-21.2c-3.4,0-6.2-2.8-6.2-6.2v-21.2c0-3.4,2.8-6.2,6.2-6.2h21.2c3.4,0,6.2,2.8,6.2,6.2v21.2
		C185.1,164.8,182.4,167.6,178.9,167.6z"/>
	<path class="st1" d="M178.9,201.1h-21.2c-3.4,0-6.2-2.8-6.2-6.2v-21.2c0-3.4,2.8-6.2,6.2-6.2h21.2c3.4,0,6.2,2.8,6.2,6.2v21.2
		C185.1,198.4,182.4,201.1,178.9,201.1z"/>
	<path class="st0" d="M178.9,234.6h-21.2c-3.4,0-6.2-2.8-6.2-6.2v-21.2c0-3.4,2.8-6.2,6.2-6.2h21.2c3.4,0,6.2,2.8,6.2,6.2v21.2
		C185.1,231.9,182.4,234.6,178.9,234.6z"/>
	<path class="st1" d="M178.9,268.2h-21.2c-3.4,0-6.2-2.8-6.2-6.2v-21.2c0-3.4,2.8-6.2,6.2-6.2h21.2c3.4,0,6.2,2.8,6.2,6.2V262
		C185.1,265.4,182.4,268.2,178.9,268.2z"/>
	<path class="st0" d="M178.9,301.7h-21.2c-3.4,0-6.2-2.8-6.2-6.2v-21.2c0-3.4,2.8-6.2,6.2-6.2h21.2c3.4,0,6.2,2.8,6.2,6.2v21.2
		C185.1,299,182.4,301.7,178.9,301.7z"/>
	<path class="st1" d="M212.5,268.2h-21.2c-3.4,0-6.2-2.8-6.2-6.2v-21.2c0-3.4,2.8-6.2,6.2-6.2h21.2c3.4,0,6.2,2.8,6.2,6.2V262
		C218.7,265.4,215.9,268.2,212.5,268.2z"/>
	<path class="st1" d="M212.5,234.6h-21.2c-3.4,0-6.2-2.8-6.2-6.2v-21.2c0-3.4,2.8-6.2,6.2-6.2h21.2c3.4,0,6.2,2.8,6.2,6.2v21.2
		C218.7,231.9,215.9,234.6,212.5,234.6z"/>
	<path class="st0" d="M212.5,167.6h-21.2c-3.4,0-6.2-2.8-6.2-6.2v-21.2c0-3.4,2.8-6.2,6.2-6.2h21.2c3.4,0,6.2,2.8,6.2,6.2v21.2
		C218.7,164.8,215.9,167.6,212.5,167.6z"/>
	<path class="st0" d="M212.5,134h-21.2c-3.4,0-6.2-2.8-6.2-6.2v-21.2c0-3.4,2.8-6.2,6.2-6.2h21.2c3.4,0,6.2,2.8,6.2,6.2v21.2
		C218.7,131.2,215.9,134,212.5,134z"/>
	<path class="st1" d="M246.1,268.2h-21.2c-3.4,0-6.2-2.8-6.2-6.2v-21.2c0-3.4,2.8-6.2,6.2-6.2h21.2c3.4,0,6.2,2.8,6.2,6.2V262
		C252.2,265.4,249.5,268.2,246.1,268.2z"/>
	<path class="st1" d="M246.1,201.1h-21.2c-3.4,0-6.2-2.8-6.2-6.2v-21.2c0-3.4,2.8-6.2,6.2-6.2h21.2c3.4,0,6.2,2.8,6.2,6.2v21.2
		C252.2,198.4,249.5,201.1,246.1,201.1z"/>
	<path class="st1" d="M246.1,167.6h-21.2c-3.4,0-6.2-2.8-6.2-6.2v-21.2c0-3.4,2.8-6.2,6.2-6.2h21.2c3.4,0,6.2,2.8,6.2,6.2v21.2
		C252.2,164.8,249.5,167.6,246.1,167.6z"/>
	<path class="st0" d="M246.1,134h-21.2c-3.4,0-6.2-2.8-6.2-6.2v-21.2c0-3.4,2.8-6.2,6.2-6.2h21.2c3.4,0,6.2,2.8,6.2,6.2v21.2
		C252.2,131.2,249.5,134,246.1,134z"/>
	<path class="st1" d="M246.1,100.4h-21.2c-3.4,0-6.2-2.8-6.2-6.2V73.1c0-3.4,2.8-6.2,6.2-6.2h21.2c3.4,0,6.2,2.8,6.2,6.2v21.2
		C252.2,97.7,249.5,100.4,246.1,100.4z"/>
	<path class="st1" d="M279.6,268.2h-21.2c-3.4,0-6.2-2.8-6.2-6.2v-21.2c0-3.4,2.8-6.2,6.2-6.2h21.2c3.4,0,6.2,2.8,6.2,6.2V262
		C285.8,265.4,283,268.2,279.6,268.2z"/>
	<path class="st1" d="M279.6,234.6h-21.2c-3.4,0-6.2-2.8-6.2-6.2v-21.2c0-3.4,2.8-6.2,6.2-6.2h21.2c3.4,0,6.2,2.8,6.2,6.2v21.2
		C285.8,231.9,283,234.6,279.6,234.6z"/>
	<path class="st0" d="M279.6,201.1h-21.2c-3.4,0-6.2-2.8-6.2-6.2v-21.2c0-3.4,2.8-6.2,6.2-6.2h21.2c3.4,0,6.2,2.8,6.2,6.2v21.2
		C285.8,198.4,283,201.1,279.6,201.1z"/>
	<path class="st1" d="M279.6,167.6h-21.2c-3.4,0-6.2-2.8-6.2-6.2v-21.2c0-3.4,2.8-6.2,6.2-6.2h21.2c3.4,0,6.2,2.8,6.2,6.2v21.2
		C285.8,164.8,283,167.6,279.6,167.6z"/>
	<path class="st1" d="M279.6,134h-21.2c-3.4,0-6.2-2.8-6.2-6.2v-21.2c0-3.4,2.8-6.2,6.2-6.2h21.2c3.4,0,6.2,2.8,6.2,6.2v21.2
		C285.8,131.2,283,134,279.6,134z"/>
	<path class="st1" d="M346.7,301.7h-21.2c-3.4,0-6.2-2.8-6.2-6.2v-21.2c0-3.4,2.8-6.2,6.2-6.2h21.2c3.4,0,6.2,2.8,6.2,6.2v21.2
		C352.9,299,350.1,301.7,346.7,301.7z"/>
	<path class="st0" d="M313.2,268.2H292c-3.4,0-6.2-2.8-6.2-6.2v-21.2c0-3.4,2.8-6.2,6.2-6.2h21.2c3.4,0,6.2,2.8,6.2,6.2V262
		C319.4,265.4,316.6,268.2,313.2,268.2z"/>
	<path class="st1" d="M313.2,234.6H292c-3.4,0-6.2-2.8-6.2-6.2v-21.2c0-3.4,2.8-6.2,6.2-6.2h21.2c3.4,0,6.2,2.8,6.2,6.2v21.2
		C319.4,231.9,316.6,234.6,313.2,234.6z"/>
	<path class="st1" d="M313.2,201.1H292c-3.4,0-6.2-2.8-6.2-6.2v-21.2c0-3.4,2.8-6.2,6.2-6.2h21.2c3.4,0,6.2,2.8,6.2,6.2v21.2
		C319.4,198.4,316.6,201.1,313.2,201.1z"/>
	<path class="st1" d="M313.2,167.6H292c-3.4,0-6.2-2.8-6.2-6.2v-21.2c0-3.4,2.8-6.2,6.2-6.2h21.2c3.4,0,6.2,2.8,6.2,6.2v21.2
		C319.4,164.8,316.6,167.6,313.2,167.6z"/>
	<path class="st0" d="M346.7,234.6h-21.2c-3.4,0-6.2-2.8-6.2-6.2v-21.2c0-3.4,2.8-6.2,6.2-6.2h21.2c3.4,0,6.2,2.8,6.2,6.2v21.2
		C352.9,231.9,350.1,234.6,346.7,234.6z"/>
	<path class="st1" d="M346.7,201.1h-21.2c-3.4,0-6.2-2.8-6.2-6.2v-21.2c0-3.4,2.8-6.2,6.2-6.2h21.2c3.4,0,6.2,2.8,6.2,6.2v21.2
		C352.9,198.4,350.1,201.1,346.7,201.1z"/>
	<path class="st0" d="M380.3,201.1h-21.2c-3.4,0-6.2-2.8-6.2-6.2v-21.2c0-3.4,2.8-6.2,6.2-6.2h21.2c3.4,0,6.2,2.8,6.2,6.2v21.2
		C386.5,198.4,383.7,201.1,380.3,201.1z"/>
	<path class="st0" d="M346.7,167.6h-21.2c-3.4,0-6.2-2.8-6.2-6.2v-21.2c0-3.4,2.8-6.2,6.2-6.2h21.2c3.4,0,6.2,2.8,6.2,6.2v21.2
		C352.9,164.8,350.1,167.6,346.7,167.6z"/>
	<path class="st1" d="M380.3,167.6h-21.2c-3.4,0-6.2-2.8-6.2-6.2v-21.2c0-3.4,2.8-6.2,6.2-6.2h21.2c3.4,0,6.2,2.8,6.2,6.2v21.2
		C386.5,164.8,383.7,167.6,380.3,167.6z"/>
	<path class="st1" d="M413.8,167.6h-21.2c-3.4,0-6.2-2.8-6.2-6.2v-21.2c0-3.4,2.8-6.2,6.2-6.2h21.2c3.4,0,6.2,2.8,6.2,6.2v21.2
		C420,164.8,417.3,167.6,413.8,167.6z"/>
	<path class="st0" d="M346.7,134h-21.2c-3.4,0-6.2-2.8-6.2-6.2v-21.2c0-3.4,2.8-6.2,6.2-6.2h21.2c3.4,0,6.2,2.8,6.2,6.2v21.2
		C352.9,131.2,350.1,134,346.7,134z"/>
	<path class="st0" d="M78.3,296.3H57.1c-3.4,0-6.2-2.8-6.2-6.2v-21.2c0-3.4,2.8-6.2,6.2-6.2h21.2c3.4,0,6.2,2.8,6.2,6.2v21.2
		C84.5,293.5,81.7,296.3,78.3,296.3z"/>
	<line class="st3" x1="386.5" y1="272.6" x2="415.3" y2="243.8"/>
	<line class="st3" x1="398.8" y1="266.7" x2="427.6" y2="237.9"/>
	<linearGradient id="SVGID_1_" gradientUnits="userSpaceOnUse" x1="250.4337" y1="232.8073" x2="221.4927" y2="203.8663">
		<stop  offset="0.4829" style="stop-color:#A9BDB0"/>
		<stop  offset="0.4985" style="stop-color:#FFFFFF"/>
		<stop  offset="0.5062" style="stop-color:#C4B0C7"/>
	</linearGradient>
	<path class="st4" d="M246.1,234.6h-21.2c-3.4,0-6.2-2.8-6.2-6.2v-21.2c0-3.4,2.8-6.2,6.2-6.2h21.2c3.4,0,6.2,2.8,6.2,6.2v21.2
		C252.2,231.9,249.5,234.6,246.1,234.6z"/>
	<linearGradient id="SVGID_2_" gradientUnits="userSpaceOnUse" x1="216.8766" y1="199.2793" x2="187.9357" y2="170.3383">
		<stop  offset="0.4829" style="stop-color:#A9BDB0"/>
		<stop  offset="0.4985" style="stop-color:#FFFFFF"/>
		<stop  offset="0.5062" style="stop-color:#C4B0C7"/>
	</linearGradient>
	<path class="st5" d="M212.5,201.1h-21.2c-3.4,0-6.2-2.8-6.2-6.2v-21.2c0-3.4,2.8-6.2,6.2-6.2h21.2c3.4,0,6.2,2.8,6.2,6.2v21.2
		C218.7,198.3,215.9,201.1,212.5,201.1z"/>
	<linearGradient id="SVGID_3_" gradientUnits="userSpaceOnUse" x1="116.2055" y1="199.2793" x2="87.2645" y2="170.3383">
		<stop  offset="0.4829" style="stop-color:#A9BDB0"/>
		<stop  offset="0.4985" style="stop-color:#FFFFFF"/>
		<stop  offset="0.5062" style="stop-color:#C4B0C7"/>
	</linearGradient>
	<path class="st6" d="M111.8,201.1H90.6c-3.4,0-6.2-2.8-6.2-6.2v-21.2c0-3.4,2.8-6.2,6.2-6.2h21.2c3.4,0,6.2,2.8,6.2,6.2v21.2
		C118,198.3,115.2,201.1,111.8,201.1z"/>
</g>
<g id="State_Names">
	<rect x="394.4" y="46" class="st7" width="20" height="12.5"/>
	<text transform="matrix(1 0 0 1 394.3803 55.5098)" class="st8 st9">ME</text>
	<rect x="394.4" y="77.4" class="st7" width="20" height="12.5"/>
	<text transform="matrix(1 0 0 1 394.3803 86.9287)" class="st8 st9">NH</text>
	<rect x="362.2" y="77.4" class="st7" width="15.8" height="12.5"/>
	<text transform="matrix(1 0 0 1 362.1834 86.9287)" class="st8 st9">VT</text>
	<rect x="57.7" y="273.3" class="st7" width="20" height="12.5"/>
	<text transform="matrix(1 0 0 1 57.6801 282.7659)" class="st8 st9">AK</text>
	<rect x="57.7" y="177.8" class="st7" width="20" height="12.5"/>
	<text transform="matrix(1 0 0 1 57.6801 187.3501)" class="st8 st9">CA</text>
	<rect x="57.7" y="146.1" class="st7" width="20" height="12.3"/>
	<text transform="matrix(1.0167 0 0 1 57.6802 155.4673)" class="st8 st10">OR</text>
	<rect x="57.7" y="111.3" class="st7" width="20" height="10.4"/>
	<text transform="matrix(1 0 0 1 57.6801 120.829)" class="st8 st9">WA</text>
	<rect x="94.4" y="214.5" class="st7" width="20" height="12.5"/>
	<text transform="matrix(1 0 0 1 94.3643 223.9807)" class="st8 st9">AZ</text>
	<rect x="94.4" y="177.8" class="st7" width="20" height="12.5"/>
	<text transform="matrix(1 0 0 1 94.3643 187.35)" class="st8 st9">UT</text>
	<rect x="94.4" y="146.1" class="st7" width="20" height="12.3"/>
	<text transform="matrix(1.0167 0 0 1 94.3645 155.4673)" class="st8 st10">NV</text>
	<rect x="94.4" y="111.3" class="st7" width="20" height="10.4"/>
	<text transform="matrix(1 0 0 1 94.3643 120.829)" class="st8 st9">ID</text>
	<rect x="124" y="213" class="st7" width="24.7" height="15.4"/>
	<text transform="matrix(1 0 0 1 124.0244 222.5397)" class="st8 st9">NM</text>
	<rect x="124.8" y="177.8" class="st7" width="20" height="12.5"/>
	<text transform="matrix(1 0 0 1 124.7942 187.3501)" class="st8 st9">CO</text>
	<rect x="124.8" y="146.1" class="st7" width="20" height="12.3"/>
	<text transform="matrix(1.0167 0 0 1 124.7939 155.4673)" class="st8 st10">WY</text>
	<rect x="125.6" y="111.3" class="st7" width="20" height="10.4"/>
	<text transform="matrix(1 0 0 1 125.6415 120.829)" class="st8 st9">MT</text>
	<rect x="161" y="278.7" class="st7" width="20" height="12.5"/>
	<text transform="matrix(1 0 0 1 161 288.2128)" class="st8 st9">TX</text>
	<rect x="158.4" y="245.1" class="st7" width="20" height="12.5"/>
	<text transform="matrix(1 0 0 1 158.3512 254.6557)" class="st8 st9">OK</text>
	<rect x="158.4" y="214.5" class="st7" width="20" height="12.5"/>
	<text transform="matrix(1 0 0 1 158.3512 223.9807)" class="st8 st9">KS</text>
	<rect x="158.4" y="177.8" class="st7" width="20" height="12.5"/>
	<text transform="matrix(1 0 0 1 158.3512 187.3501)" class="st8 st9">NE</text>
	<rect x="158.4" y="146.1" class="st7" width="20" height="12.3"/>
	<text transform="matrix(1.0167 0 0 1 158.3511 155.4673)" class="st8 st10">SD</text>
	<rect x="158.4" y="111.3" class="st7" width="20" height="10.4"/>
	<text transform="matrix(1 0 0 1 158.3512 120.829)" class="st8 st9">ND</text>
	<rect x="191.9" y="245.1" class="st7" width="20" height="12.5"/>
	<text transform="matrix(1 0 0 1 191.9083 254.6557)" class="st8 st9">LA</text>
	<rect x="191.9" y="214.5" class="st7" width="20" height="12.5"/>
	<text transform="matrix(1 0 0 1 191.9083 223.9807)" class="st8 st9">AR</text>
	<rect x="191.9" y="179.4" class="st7" width="23.4" height="11.3"/>
	<text transform="matrix(1 0 0 1 191.9083 188.8796)" class="st8 st9">MO</text>
	<rect x="196.1" y="146.1" class="st7" width="20" height="12.3"/>
	<text transform="matrix(1.0167 0 0 1 196.1448 155.4673)" class="st8 st10">IA</text>
	<rect x="191.9" y="111.3" class="st7" width="23.4" height="14"/>
	<text transform="matrix(1 0 0 1 191.9083 120.829)" class="st8 st9">MN</text>
	<rect x="225.3" y="245.1" class="st7" width="23.8" height="12.5"/>
	<text transform="matrix(1 0 0 1 225.2606 254.6553)" class="st8 st9">MS</text>
	<rect x="227.2" y="214.5" class="st7" width="20" height="12.5"/>
	<text transform="matrix(1 0 0 1 227.1599 223.9807)" class="st8 st9">TN</text>
	<rect x="227.2" y="177.8" class="st7" width="20" height="12.5"/>
	<text transform="matrix(1 0 0 1 227.1599 187.3499)" class="st8 st9">KY</text>
	<rect x="228.9" y="146.1" class="st7" width="20" height="12.3"/>
	<text transform="matrix(1.0167 0 0 1 228.8548 155.4673)" class="st8 st10">IN</text>
	<rect x="230" y="111.3" class="st7" width="20" height="10.4"/>
	<text transform="matrix(1 0 0 1 230 120.829)" class="st8 st9">IL</text>
	<rect x="227.2" y="77.4" class="st7" width="20" height="12.5"/>
	<text transform="matrix(1 0 0 1 227.16 86.9287)" class="st8 st9">WI</text>
	<rect x="259" y="245.1" class="st7" width="20" height="12.5"/>
	<text transform="matrix(1 0 0 1 259.0224 254.6557)" class="st8 st9">AL</text>
	<rect x="259" y="214.5" class="st7" width="20" height="12.5"/>
	<text transform="matrix(1 0 0 1 259.0224 223.9807)" class="st8 st9">NC</text>
	<rect x="259" y="177.8" class="st7" width="20" height="12.5"/>
	<text transform="matrix(1 0 0 1 259.0224 187.3499)" class="st8 st9">WV</text>
	<rect x="259" y="146.1" class="st7" width="20" height="12.3"/>
	<text transform="matrix(1.0167 0 0 1 259.0225 155.4673)" class="st8 st10">OH</text>
	<rect x="261.8" y="111.3" class="st7" width="20" height="10.4"/>
	<text transform="matrix(1 0 0 1 261.7999 120.829)" class="st8 st9">MI</text>
	<rect x="326.1" y="279.5" class="st7" width="20" height="12.5"/>
	<text transform="matrix(1 0 0 1 326.1365 289.0159)" class="st8 st9">FL</text>
	<rect x="292.6" y="245.1" class="st7" width="20" height="12.5"/>
	<text transform="matrix(1 0 0 1 292.5794 254.6557)" class="st8 st9">GA</text>
	<rect x="292.6" y="214.5" class="st7" width="20" height="12.5"/>
	<text transform="matrix(1 0 0 1 292.5794 223.9807)" class="st8 st9">SC</text>
	<rect x="292.6" y="177.8" class="st7" width="20" height="12.5"/>
	<text transform="matrix(1 0 0 1 292.5794 187.3499)" class="st8 st9">VA</text>
	<rect x="294.2" y="146.1" class="st7" width="20" height="12.3"/>
	<text transform="matrix(1.0167 0 0 1 294.1523 155.4673)" class="st8 st10">PA</text>
	<rect x="326.7" y="214.5" class="st7" width="20" height="12.5"/>
	<text transform="matrix(1 0 0 1 326.6744 223.9807)" class="st8 st9">DC</text>
	<rect x="326" y="177.9" class="st7" width="21.3" height="14.3"/>
	<text transform="matrix(1 0 0 1 326.0077 187.3689)" class="st8 st9">MD</text>
	<rect x="360.1" y="177.8" class="st7" width="20" height="12.5"/>
	<text transform="matrix(1 0 0 1 360.0866 187.3499)" class="st8 st9">DE</text>
	<rect x="326.7" y="146.1" class="st7" width="20" height="12.3"/>
	<text transform="matrix(1.0167 0 0 1 326.6741 155.4673)" class="st8 st10">NJ</text>
	<rect x="326.7" y="111.3" class="st7" width="20" height="10.4"/>
	<text transform="matrix(1 0 0 1 326.6744 120.829)" class="st8 st9">NY</text>
	<rect x="394.4" y="146.1" class="st7" width="20" height="12.3"/>
	<text transform="matrix(1.0167 0 0 1 394.3803 155.4673)" class="st8 st10">RI</text>
	<rect x="360.1" y="146.1" class="st7" width="20" height="12.3"/>
	<text transform="matrix(1.0167 0 0 1 360.0867 155.4673)" class="st8 st10">CT</text>
	<rect x="359" y="115.2" class="st7" width="22.1" height="13.1"/>
	<text transform="matrix(1 0 0 1 359.0383 124.7006)" class="st8 st9">MA</text>
	<rect x="26" y="273.3" class="st7" width="16.2" height="12.5"/>
	<text transform="matrix(1 0 0 1 26.0179 282.7654)" class="st8 st9">HI</text>
	<g>
		<g>
			
				<rect x="160.5" y="310.7" transform="matrix(0.2148 -0.9766 0.9766 0.2148 -178.0884 407.9662)" class="st7" width="8.4" height="8.1"/>
			<g>
				<polygon points="164.3,319 165.2,314.8 168.7,315.6 165.6,310.6 160.7,313.9 164.2,314.6 163.3,318.8 				"/>
			</g>
		</g>
		<path class="st11" d="M164.4,316.2c-3.9,14.9,5,30,19.8,33.9"/>
	</g>
</g>
<g id="Arrows">
</g>
<g id="Text">
	<rect x="195.7" y="313.5" class="st7" width="245.9" height="66.3"/>
	<text transform="matrix(1 0 0 1 195.6581 322.0582)"><tspan x="0" y="0" class="st8 st12">The Supreme Court on June 27 struck down </tspan><tspan x="0" y="13.5" class="st8 st12">portions of a TX law that required doctores </tspan><tspan x="0" y="27" class="st8 st12">to have admitting priveleges at a nearby </tspan><tspan x="0" y="40.5" class="st8 st12">hospital and clinics to meet ambulatory </tspan><tspan x="0" y="54" class="st8 st12">surgical center standards.</tspan></text>
</g>
</svg>
