<?xml version="1.0" encoding="utf-8"?>
<!-- Generator: Adobe Illustrator 16.0.4, SVG Export Plug-In . SVG Version: 6.00 Build 0)  -->
<!DOCTYPE svg PUBLIC "-//W3C//DTD SVG 1.1//EN" "http://www.w3.org/Graphics/SVG/1.1/DTD/svg11.dtd">
<svg version="1.1" id="Layer_1" xmlns="http://www.w3.org/2000/svg" xmlns:xlink="http://www.w3.org/1999/xlink" x="0px" y="0px"
	 width="500px" height="386.363px" viewBox="0 0 500 386.363" enable-background="new 0 0 500 386.363" xml:space="preserve">
<g>
	<defs>
		<rect id="SVGID_1_" x="-66.578" y="-6.175" width="637.065" height="382.237"/>
	</defs>
	<clipPath id="SVGID_2_">
		<use xlink:href="#SVGID_1_"  overflow="visible"/>
	</clipPath>
	<path clip-path="url(#SVGID_2_)" fill="none" stroke="#D9D9D8" stroke-linejoin="round" stroke-miterlimit="10" d="
		M162.589,138.049l90.25-42.471 M141.353,235.378l21.236-97.329 M203.29,313.24l-61.938-77.862 M300.619,313.24H203.29
		 M362.557,235.378l-61.938,77.862 M341.32,138.049l21.236,97.329 M252.839,95.578l88.481,42.471 M180.285,152.206l72.554-33.623
		 M162.589,230.067l17.696-77.862 M212.138,292.005l-49.549-61.938 M291.771,292.005h-79.633 M341.32,230.067l-49.549,61.938
		 M323.624,152.206l17.696,77.862 M252.839,118.583l70.785,33.623 M197.981,166.363l54.857-24.775 M185.593,224.76l12.388-58.397
		 M222.756,270.771l-37.163-46.011 M281.153,270.771h-58.397 M318.315,224.76l-37.162,46.011 M305.929,166.363l12.387,58.397
		 M252.839,141.588l53.09,24.775 M215.677,180.519l37.162-15.926 M206.829,219.45l8.848-38.931 M231.604,251.304l-24.774-31.854
		 M272.305,251.304h-40.701 M297.08,219.45l-24.775,31.854 M288.232,180.519l8.848,38.931 M252.839,164.593l35.394,15.926
		 M233.374,194.676l19.465-7.078 M229.834,214.142l3.54-19.466 M242.222,230.067l-12.388-15.926 M261.688,230.067h-19.467
		 M274.076,214.142l-12.388,15.926 M270.535,194.676l3.541,19.466 M252.839,187.598l17.696,7.078"/>
</g>
<g>
	<defs>
		<rect id="SVGID_3_" x="136.929" y="94.693" width="230.05" height="230.051"/>
	</defs>
	<clipPath id="SVGID_4_">
		<use xlink:href="#SVGID_3_"  overflow="visible"/>
	</clipPath>
	<polygon clip-path="url(#SVGID_4_)" fill="#988EC3" points="251.955,137.164 328.049,147.782 345.745,230.954 292.656,294.659 
		209.484,298.198 163.473,229.183 197.096,165.478 	"/>
</g>
<g>
	<defs>
		<rect id="SVGID_5_" x="136.929" y="94.693" width="230.05" height="230.051"/>
	</defs>
	<clipPath id="SVGID_6_">
		<use xlink:href="#SVGID_5_"  overflow="visible"/>
	</clipPath>
	<polygon opacity="0.8" clip-path="url(#SVGID_6_)" fill="#F1A33F" points="251.955,114.159 306.812,165.478 322.739,225.645 
		287.348,284.042 227.18,261.036 181.17,225.645 179.399,151.321 	"/>
</g>
<g>
	<defs>
		<rect id="SVGID_7_" x="-66.578" y="-6.175" width="637.065" height="382.237"/>
	</defs>
	<clipPath id="SVGID_8_">
		<use xlink:href="#SVGID_7_"  overflow="visible"/>
	</clipPath>
	<g clip-path="url(#SVGID_8_)">
		<text transform="matrix(1 0 0 1 195.7686 68.8306)"><tspan x="0" y="0" fill="#5A5A5A" font-family="'HelveticaNeue'" font-size="15.9266">C</tspan><tspan x="10.623" y="0" fill="#5A5A5A" font-family="'HelveticaNeue'" font-size="15.9266">o</tspan><tspan x="19.478" y="0" fill="#5A5A5A" font-family="'HelveticaNeue'" font-size="15.9266">mm</tspan><tspan x="47.764" y="0" fill="#5A5A5A" font-family="'HelveticaNeue'" font-size="15.9266">uni</tspan><tspan x="69.01" y="0" fill="#5A5A5A" font-family="'HelveticaNeue'" font-size="15.9266">cat</tspan><tspan x="91.991" y="0" fill="#5A5A5A" font-family="'HelveticaNeue'" font-size="15.9266">i</tspan><tspan x="95.526" y="0" fill="#5A5A5A" font-family="'HelveticaNeue'" font-size="15.9266">o</tspan><tspan x="104.381" y="0" fill="#5A5A5A" font-family="'HelveticaNeue'" font-size="15.9266">n </tspan></text>
	</g>
</g>
<g>
	<defs>
		<rect id="SVGID_9_" x="-66.578" y="-6.175" width="637.065" height="382.237"/>
	</defs>
	<clipPath id="SVGID_10_">
		<use xlink:href="#SVGID_9_"  overflow="visible"/>
	</clipPath>
	<g clip-path="url(#SVGID_10_)">
		<text transform="matrix(1 0 0 1 229.3911 88.2969)"><tspan x="0" y="0" fill="#5A5A5A" font-family="'HelveticaNeue'" font-size="15.9266">A</tspan><tspan x="10.607" y="0" fill="#5A5A5A" font-family="'HelveticaNeue'" font-size="15.9266">b</tspan><tspan x="19.462" y="0" fill="#5A5A5A" font-family="'HelveticaNeue'" font-size="15.9266">ili</tspan><tspan x="30.069" y="0" fill="#5A5A5A" font-family="'HelveticaNeue'" font-size="15.9266">t</tspan><tspan x="35.372" y="0" fill="#5A5A5A" font-family="'HelveticaNeue'" font-size="15.9266">y</tspan></text>
	</g>
</g>
<g>
	<defs>
		<rect id="SVGID_11_" x="-66.578" y="-6.175" width="637.065" height="382.237"/>
	</defs>
	<clipPath id="SVGID_12_">
		<use xlink:href="#SVGID_11_"  overflow="visible"/>
	</clipPath>
	<g clip-path="url(#SVGID_12_)">
		<text transform="matrix(1 0 0 1 345.3418 132.5127)"><tspan x="0" y="0" fill="#5A5A5A" font-family="'HelveticaNeue'" font-size="15.9266">H</tspan><tspan x="10.623" y="0" fill="#5A5A5A" font-family="'HelveticaNeue'" font-size="15.9266">a</tspan><tspan x="19.462" y="0" fill="#5A5A5A" font-family="'HelveticaNeue'" font-size="15.9266">n</tspan><tspan x="28.317" y="0" fill="#5A5A5A" font-family="'HelveticaNeue'" font-size="15.9266">d</tspan><tspan x="37.172" y="0" fill="#5A5A5A" font-family="'HelveticaNeue'" font-size="15.9266">lin</tspan><tspan x="53.099" y="0" fill="#5A5A5A" font-family="'HelveticaNeue'" font-size="15.9266">g</tspan><tspan x="61.953" y="0" fill="#5A5A5A" font-family="'HelveticaNeue'" font-size="15.9266"> </tspan><tspan x="67.257" y="0" fill="#5A5A5A" font-family="'HelveticaNeue'" font-size="15.9266">o</tspan><tspan x="76.112" y="0" fill="#5A5A5A" font-family="'HelveticaNeue'" font-size="15.9266">f</tspan><tspan x="81.415" y="0" fill="#5A5A5A" font-family="'HelveticaNeue'" font-size="15.9266"> </tspan></text>
	</g>
</g>
<g>
	<defs>
		<rect id="SVGID_13_" x="-66.578" y="-6.175" width="637.065" height="382.237"/>
	</defs>
	<clipPath id="SVGID_14_">
		<use xlink:href="#SVGID_13_"  overflow="visible"/>
	</clipPath>
	<g clip-path="url(#SVGID_14_)">
		<text transform="matrix(1 0 0 1 352.4199 151.9785)"><tspan x="0" y="0" fill="#5A5A5A" font-family="'HelveticaNeue'" font-size="15.9266">Ec</tspan><tspan x="18.856" y="0" fill="#5A5A5A" font-family="'HelveticaNeue'" font-size="15.9266">o</tspan><tspan x="27.712" y="0" fill="#5A5A5A" font-family="'HelveticaNeue'" font-size="15.9266">n</tspan><tspan x="36.567" y="0" fill="#5A5A5A" font-family="'HelveticaNeue'" font-size="15.9266">o</tspan><tspan x="45.422" y="0" fill="#5A5A5A" font-family="'HelveticaNeue'" font-size="15.9266">m</tspan><tspan x="59.564" y="0" fill="#5A5A5A" font-family="'HelveticaNeue'" font-size="15.9266">y</tspan></text>
	</g>
</g>
<g>
	<defs>
		<rect id="SVGID_15_" x="-66.578" y="-6.175" width="637.065" height="382.237"/>
	</defs>
	<clipPath id="SVGID_16_">
		<use xlink:href="#SVGID_15_"  overflow="visible"/>
	</clipPath>
	<g clip-path="url(#SVGID_16_)">
		<text transform="matrix(1 0 0 1 395.5586 232.917)"><tspan x="0" y="0" fill="#5A5A5A" font-family="'HelveticaNeue'" font-size="15.9266">D</tspan><tspan x="10.623" y="0" fill="#5A5A5A" font-family="'HelveticaNeue'" font-size="15.9266">o</tspan><tspan x="19.478" y="0" fill="#5A5A5A" font-family="'HelveticaNeue'" font-size="15.9266">m</tspan><tspan x="33.621" y="0" fill="#5A5A5A" font-family="'HelveticaNeue'" font-size="15.9266">e</tspan><tspan x="42.46" y="0" fill="#5A5A5A" font-family="'HelveticaNeue'" font-size="15.9266">s</tspan><tspan x="51.299" y="0" fill="#5A5A5A" font-family="'HelveticaNeue'" font-size="15.9266">t</tspan><tspan x="56.603" y="0" fill="#5A5A5A" font-family="'HelveticaNeue'" font-size="15.9266">i</tspan><tspan x="60.138" y="0" fill="#5A5A5A" font-family="'HelveticaNeue'" font-size="15.9266">c</tspan><tspan x="68.978" y="0" fill="#5A5A5A" font-family="'HelveticaNeue'" font-size="15.9266"> </tspan></text>
	</g>
</g>
<g>
	<defs>
		<rect id="SVGID_17_" x="-66.578" y="-6.175" width="637.065" height="382.237"/>
	</defs>
	<clipPath id="SVGID_18_">
		<use xlink:href="#SVGID_17_"  overflow="visible"/>
	</clipPath>
	<g clip-path="url(#SVGID_18_)">
		<text transform="matrix(1 0 0 1 365.4766 252.3828)"><tspan x="0" y="0" fill="#5A5A5A" font-family="'HelveticaNeue'" font-size="15.9266">Acc</tspan><tspan x="28.285" y="0" fill="#5A5A5A" font-family="'HelveticaNeue'" font-size="15.9266">o</tspan><tspan x="37.141" y="0" fill="#5A5A5A" font-family="'HelveticaNeue'" font-size="15.9266">m</tspan><tspan x="51.283" y="0" fill="#5A5A5A" font-family="'HelveticaNeue'" font-size="15.9266">p</tspan><tspan x="60.138" y="0" fill="#5A5A5A" font-family="'HelveticaNeue'" font-size="15.9266">li</tspan><tspan x="67.209" y="0" fill="#5A5A5A" font-family="'HelveticaNeue'" font-size="15.9266">s</tspan><tspan x="76.048" y="0" fill="#5A5A5A" font-family="'HelveticaNeue'" font-size="15.9266">h</tspan><tspan x="84.903" y="0" fill="#5A5A5A" font-family="'HelveticaNeue'" font-size="15.9266">m</tspan><tspan x="99.046" y="0" fill="#5A5A5A" font-family="'HelveticaNeue'" font-size="15.9266">e</tspan><tspan x="107.886" y="0" fill="#5A5A5A" font-family="'HelveticaNeue'" font-size="15.9266">n</tspan><tspan x="116.74" y="0" fill="#5A5A5A" font-family="'HelveticaNeue'" font-size="15.9266">t</tspan><tspan x="122.044" y="0" fill="#5A5A5A" font-family="'HelveticaNeue'" font-size="15.9266">s</tspan></text>
	</g>
</g>
<g>
	<defs>
		<rect id="SVGID_19_" x="-66.578" y="-6.175" width="637.065" height="382.237"/>
	</defs>
	<clipPath id="SVGID_20_">
		<use xlink:href="#SVGID_19_"  overflow="visible"/>
	</clipPath>
	<g clip-path="url(#SVGID_20_)">
		<text transform="matrix(1 0 0 1 302.5508 322.9297)"><tspan x="0" y="0" fill="#5A5A5A" font-family="'HelveticaNeue'" font-size="15.9266">I</tspan><tspan x="3.552" y="0" fill="#5A5A5A" font-family="'HelveticaNeue'" font-size="15.9266">n</tspan><tspan x="12.406" y="0" fill="#5A5A5A" font-family="'HelveticaNeue'" font-size="15.9266">te</tspan><tspan x="26.549" y="0" fill="#5A5A5A" font-family="'HelveticaNeue'" font-size="15.9266">g</tspan><tspan x="35.404" y="0" fill="#5A5A5A" font-family="'HelveticaNeue'" font-size="15.9266">ri</tspan><tspan x="44.243" y="0" fill="#5A5A5A" font-family="'HelveticaNeue'" font-size="15.9266">t</tspan><tspan x="49.546" y="0" fill="#5A5A5A" font-family="'HelveticaNeue'" font-size="15.9266">y</tspan></text>
	</g>
</g>
<g>
	<defs>
		<rect id="SVGID_21_" x="-66.578" y="-6.175" width="637.065" height="382.237"/>
	</defs>
	<clipPath id="SVGID_22_">
		<use xlink:href="#SVGID_21_"  overflow="visible"/>
	</clipPath>
	<g clip-path="url(#SVGID_22_)">
		<text transform="matrix(1 0 0 1 99.4609 322.9297)"><tspan x="0" y="0" fill="#5A5A5A" font-family="'HelveticaNeue'" font-size="15.9266">Fo</tspan><tspan x="17.71" y="0" fill="#5A5A5A" font-family="'HelveticaNeue'" font-size="15.9266">r</tspan><tspan x="23.014" y="0" fill="#5A5A5A" font-family="'HelveticaNeue'" font-size="15.9266">e</tspan><tspan x="31.853" y="0" fill="#5A5A5A" font-family="'HelveticaNeue'" font-size="15.9266">i</tspan><tspan x="35.388" y="0" fill="#5A5A5A" font-family="'HelveticaNeue'" font-size="15.9266">g</tspan><tspan x="44.243" y="0" fill="#5A5A5A" font-family="'HelveticaNeue'" font-size="15.9266">n</tspan><tspan x="53.098" y="0" fill="#5A5A5A" font-family="'HelveticaNeue'" font-size="15.9266"> </tspan><tspan x="58.402" y="0" fill="#5A5A5A" font-family="'HelveticaNeue'" font-size="15.9266">P</tspan><tspan x="68.133" y="0" fill="#5A5A5A" font-family="'HelveticaNeue'" font-size="15.9266">o</tspan><tspan x="76.988" y="0" fill="#5A5A5A" font-family="'HelveticaNeue'" font-size="15.9266">li</tspan><tspan x="84.059" y="0" fill="#5A5A5A" font-family="'HelveticaNeue'" font-size="15.9266">c</tspan><tspan x="92.898" y="0" fill="#5A5A5A" font-family="'HelveticaNeue'" font-size="15.9266">y</tspan></text>
	</g>
</g>
<g>
	<defs>
		<rect id="SVGID_23_" x="-66.578" y="-6.175" width="637.065" height="382.237"/>
	</defs>
	<clipPath id="SVGID_24_">
		<use xlink:href="#SVGID_23_"  overflow="visible"/>
	</clipPath>
	<g clip-path="url(#SVGID_24_)">
		<text transform="matrix(1 0 0 1 10.4526 242.415)"><tspan x="0" y="0" fill="#5A5A5A" font-family="'HelveticaNeue'" font-size="15.9266">L</tspan><tspan x="8.855" y="0" fill="#5A5A5A" font-family="'HelveticaNeue'" font-size="15.9266">ea</tspan><tspan x="26.533" y="0" fill="#5A5A5A" font-family="'HelveticaNeue'" font-size="15.9266">d</tspan><tspan x="35.388" y="0" fill="#5A5A5A" font-family="'HelveticaNeue'" font-size="15.9266">e</tspan><tspan x="44.228" y="0" fill="#5A5A5A" font-family="'HelveticaNeue'" font-size="15.9266">r</tspan><tspan x="49.531" y="0" fill="#5A5A5A" font-family="'HelveticaNeue'" font-size="15.9266">s</tspan><tspan x="58.37" y="0" fill="#5A5A5A" font-family="'HelveticaNeue'" font-size="15.9266">hi</tspan><tspan x="70.761" y="0" fill="#5A5A5A" font-family="'HelveticaNeue'" font-size="15.9266">p</tspan><tspan x="79.616" y="0" fill="#5A5A5A" font-family="'HelveticaNeue'" font-size="15.9266"> </tspan><tspan x="83.167" y="0" fill="#5A5A5A" font-family="'HelveticaNeue'" font-size="15.9266">A</tspan><tspan x="93.774" y="0" fill="#5A5A5A" font-family="'HelveticaNeue'" font-size="15.9266">b</tspan><tspan x="102.629" y="0" fill="#5A5A5A" font-family="'HelveticaNeue'" font-size="15.9266">ili</tspan><tspan x="113.236" y="0" fill="#5A5A5A" font-family="'HelveticaNeue'" font-size="15.9266">t</tspan><tspan x="118.539" y="0" fill="#5A5A5A" font-family="'HelveticaNeue'" font-size="15.9266">y</tspan></text>
	</g>
</g>
<g>
	<defs>
		<rect id="SVGID_25_" x="-66.578" y="-6.175" width="637.065" height="382.237"/>
	</defs>
	<clipPath id="SVGID_26_">
		<use xlink:href="#SVGID_25_"  overflow="visible"/>
	</clipPath>
	<g clip-path="url(#SVGID_26_)">
		<text transform="matrix(1 0 0 1 78.4902 142.0107)"><tspan x="0" y="0" fill="#5A5A5A" font-family="'HelveticaNeue'" font-size="15.9266">I</tspan><tspan x="3.551" y="0" fill="#5A5A5A" font-family="'HelveticaNeue'" font-size="15.9266">n</tspan><tspan x="12.407" y="0" fill="#5A5A5A" font-family="'HelveticaNeue'" font-size="15.9266">te</tspan><tspan x="26.549" y="0" fill="#5A5A5A" font-family="'HelveticaNeue'" font-size="15.9266">lli</tspan><tspan x="37.155" y="0" fill="#5A5A5A" font-family="'HelveticaNeue'" font-size="15.9266">g</tspan><tspan x="46.01" y="0" fill="#5A5A5A" font-family="'HelveticaNeue'" font-size="15.9266">e</tspan><tspan x="54.85" y="0" fill="#5A5A5A" font-family="'HelveticaNeue'" font-size="15.9266">n</tspan><tspan x="63.705" y="0" fill="#5A5A5A" font-family="'HelveticaNeue'" font-size="15.9266">c</tspan><tspan x="72.544" y="0" fill="#5A5A5A" font-family="'HelveticaNeue'" font-size="15.9266">e</tspan></text>
	</g>
</g>
<g>
	<defs>
		<rect id="SVGID_27_" x="-66.578" y="-6.175" width="637.065" height="382.237"/>
	</defs>
	<clipPath id="SVGID_28_">
		<use xlink:href="#SVGID_27_"  overflow="visible"/>
	</clipPath>
	<rect x="117.463" y="22.14" clip-path="url(#SVGID_28_)" fill="#988EC3" width="8.848" height="7.078"/>
</g>
<g>
	<defs>
		<rect id="SVGID_29_" x="-66.578" y="-6.175" width="637.065" height="382.237"/>
	</defs>
	<clipPath id="SVGID_30_">
		<use xlink:href="#SVGID_29_"  overflow="visible"/>
	</clipPath>
	<g clip-path="url(#SVGID_30_)">
		<text transform="matrix(1 0 0 1 129.6353 32.1821)"><tspan x="0" y="0" fill="#5A5A5A" font-family="'HelveticaNeue'" font-size="15.9266">H</tspan><tspan x="10.623" y="0" fill="#5A5A5A" font-family="'HelveticaNeue'" font-size="15.9266">a</tspan><tspan x="19.462" y="0" fill="#5A5A5A" font-family="'HelveticaNeue'" font-size="15.9266">rr</tspan><tspan x="30.069" y="0" fill="#5A5A5A" font-family="'HelveticaNeue'" font-size="15.9266">y</tspan><tspan x="38.908" y="0" fill="#5A5A5A" font-family="'HelveticaNeue'" font-size="15.9266"> </tspan><tspan x="42.444" y="0" fill="#5A5A5A" font-family="'HelveticaNeue'" font-size="15.9266">S</tspan><tspan x="53.051" y="0" fill="#5A5A5A" font-family="'HelveticaNeue'" font-size="15.9266">.</tspan><tspan x="58.354" y="0" fill="#5A5A5A" font-family="'HelveticaNeue'" font-size="15.9266"> </tspan><tspan x="61.89" y="0" fill="#5A5A5A" font-family="'HelveticaNeue'" font-size="15.9266">T</tspan><tspan x="70.745" y="0" fill="#5A5A5A" font-family="'HelveticaNeue'" font-size="15.9266">ru</tspan><tspan x="84.904" y="0" fill="#5A5A5A" font-family="'HelveticaNeue'" font-size="15.9266">m</tspan><tspan x="99.046" y="0" fill="#5A5A5A" font-family="'HelveticaNeue'" font-size="15.9266">a</tspan><tspan x="107.886" y="0" fill="#5A5A5A" font-family="'HelveticaNeue'" font-size="15.9266">n</tspan></text>
	</g>
</g>
<g>
	<defs>
		<rect id="SVGID_31_" x="-66.578" y="-6.175" width="637.065" height="382.237"/>
	</defs>
	<clipPath id="SVGID_32_">
		<use xlink:href="#SVGID_31_"  overflow="visible"/>
	</clipPath>
	<rect x="267.882" y="22.14" clip-path="url(#SVGID_32_)" fill="#ED7D31" width="8.847" height="7.078"/>
</g>
<g>
	<defs>
		<rect id="SVGID_33_" x="-66.578" y="-6.175" width="637.065" height="382.237"/>
	</defs>
	<clipPath id="SVGID_34_">
		<use xlink:href="#SVGID_33_"  overflow="visible"/>
	</clipPath>
	<g clip-path="url(#SVGID_34_)">
		<text transform="matrix(1 0 0 1 280.3252 32.1821)"><tspan x="0" y="0" fill="#5A5A5A" font-family="'HelveticaNeue'" font-size="15.9266">*B</tspan><tspan x="15.942" y="0" fill="#5A5A5A" font-family="'HelveticaNeue'" font-size="15.9266">a</tspan><tspan x="24.781" y="0" fill="#5A5A5A" font-family="'HelveticaNeue'" font-size="15.9266">r</tspan><tspan x="30.085" y="0" fill="#5A5A5A" font-family="'HelveticaNeue'" font-size="15.9266">ac</tspan><tspan x="47.763" y="0" fill="#5A5A5A" font-family="'HelveticaNeue'" font-size="15.9266">k</tspan><tspan x="56.603" y="0" fill="#5A5A5A" font-family="'HelveticaNeue'" font-size="15.9266"> </tspan><tspan x="60.154" y="0" fill="#5A5A5A" font-family="'HelveticaNeue'" font-size="15.9266">O</tspan><tspan x="72.545" y="0" fill="#5A5A5A" font-family="'HelveticaNeue'" font-size="15.9266">b</tspan><tspan x="81.399" y="0" fill="#5A5A5A" font-family="'HelveticaNeue'" font-size="15.9266">a</tspan><tspan x="90.238" y="0" fill="#5A5A5A" font-family="'HelveticaNeue'" font-size="15.9266">m</tspan><tspan x="104.397" y="0" fill="#5A5A5A" font-family="'HelveticaNeue'" font-size="15.9266">a</tspan></text>
	</g>
</g>
</svg>
