<?xml version="1.0" encoding="utf-8"?>
<!-- Generator: Adobe Illustrator 16.0.4, SVG Export Plug-In . SVG Version: 6.00 Build 0)  -->
<!DOCTYPE svg PUBLIC "-//W3C//DTD SVG 1.1//EN" "http://www.w3.org/Graphics/SVG/1.1/DTD/svg11.dtd">
<svg version="1.1" id="Layer_1" xmlns="http://www.w3.org/2000/svg" xmlns:xlink="http://www.w3.org/1999/xlink" x="0px" y="0px"
	 width="500px" height="386.363px" viewBox="0 0 500 386.363" enable-background="new 0 0 500 386.363" xml:space="preserve">
<g>
	<defs>
		<rect id="SVGID_1_" x="-74.139" y="0.001" width="640.972" height="384.581"/>
	</defs>
	<clipPath id="SVGID_2_">
		<use xlink:href="#SVGID_1_"  overflow="visible"/>
	</clipPath>
	<path clip-path="url(#SVGID_2_)" fill="none" stroke="#D9D9D8" stroke-linejoin="round" stroke-miterlimit="10" d="M158.214,145.11
		l89.024-42.731 M136.848,243.035l21.366-97.925 M197.384,319.596l-60.536-76.561 M297.091,319.596h-99.707 M359.407,243.035
		l-62.316,76.561 M338.042,145.11l21.365,97.925 M247.238,102.379l90.804,42.731 M176.018,159.354l71.22-33.83 M158.214,237.695
		l17.804-78.341 M208.066,300.01l-49.853-62.314 M288.188,300.01h-80.121 M338.042,237.695l-49.854,62.314 M320.237,159.354
		l17.805,78.341 M247.238,125.525l73,33.83 M193.823,173.598l53.415-24.927 M181.359,232.354l12.463-58.755 M218.749,278.645
		l-37.39-46.291 M277.505,278.645h-58.756 M314.895,232.354l-37.39,46.291 M302.432,173.598l12.463,58.755 M247.238,148.671
		l55.194,24.927 M211.627,187.842l35.61-17.805 M202.725,227.012l8.902-39.17 M227.652,257.279l-24.927-30.268 M268.604,257.279
		h-40.952 M293.529,227.012l-24.926,30.268 M284.627,187.842l8.902,39.17 M247.238,170.037l37.389,17.805 M229.432,202.084
		l17.806-8.9 M225.872,221.67l3.561-19.586 M238.335,237.695l-12.463-16.025 M257.921,237.695h-19.586 M270.383,221.67
		l-12.462,16.025 M265.042,202.084l5.341,19.586 M247.238,193.184l17.804,8.9"/>
</g>
<g>
	<defs>
		<rect id="SVGID_3_" x="132.396" y="101.489" width="231.462" height="229.681"/>
	</defs>
	<clipPath id="SVGID_4_">
		<use xlink:href="#SVGID_3_"  overflow="visible"/>
	</clipPath>
	<polygon opacity="0.9" clip-path="url(#SVGID_4_)" fill="#A2CF6B" points="248.127,112.171 322.907,156.684 321.126,233.244 
		258.81,236.805 217.859,279.535 164.445,235.023 180.469,163.806 	"/>
</g>
<g>
	<defs>
		<rect id="SVGID_5_" x="132.396" y="101.489" width="231.462" height="229.681"/>
	</defs>
	<clipPath id="SVGID_6_">
		<use xlink:href="#SVGID_5_"  overflow="visible"/>
	</clipPath>
	<polygon opacity="0.8" clip-path="url(#SVGID_6_)" fill="#E9A3C8" points="248.127,122.854 331.811,149.562 333.59,236.805 
		251.688,224.34 217.859,277.756 171.567,233.244 176.908,160.244 	"/>
</g>
<g>
	<defs>
		<rect id="SVGID_7_" x="-74.139" y="0.001" width="640.972" height="384.581"/>
	</defs>
	<clipPath id="SVGID_8_">
		<use xlink:href="#SVGID_7_"  overflow="visible"/>
	</clipPath>
	<g clip-path="url(#SVGID_8_)">
		<text transform="matrix(1 0 0 1 191.4365 75.1431)"><tspan x="0" y="0" fill="#5A5A5A" font-family="'HelveticaNeue'" font-size="16.0243">C</tspan><tspan x="10.688" y="0" fill="#5A5A5A" font-family="'HelveticaNeue'" font-size="16.0243">o</tspan><tspan x="19.597" y="0" fill="#5A5A5A" font-family="'HelveticaNeue'" font-size="16.0243">mm</tspan><tspan x="48.056" y="0" fill="#5A5A5A" font-family="'HelveticaNeue'" font-size="16.0243">uni</tspan><tspan x="69.433" y="0" fill="#5A5A5A" font-family="'HelveticaNeue'" font-size="16.0243">cat</tspan><tspan x="92.555" y="0" fill="#5A5A5A" font-family="'HelveticaNeue'" font-size="16.0243">i</tspan><tspan x="96.112" y="0" fill="#5A5A5A" font-family="'HelveticaNeue'" font-size="16.0243">o</tspan><tspan x="105.021" y="0" fill="#5A5A5A" font-family="'HelveticaNeue'" font-size="16.0243">n </tspan></text>
	</g>
</g>
<g>
	<defs>
		<rect id="SVGID_9_" x="-74.139" y="0.001" width="640.972" height="384.581"/>
	</defs>
	<clipPath id="SVGID_10_">
		<use xlink:href="#SVGID_9_"  overflow="visible"/>
	</clipPath>
	<g clip-path="url(#SVGID_10_)">
		<text transform="matrix(1 0 0 1 225.2656 94.7285)"><tspan x="0" y="0" fill="#5A5A5A" font-family="'HelveticaNeue'" font-size="16.0243">A</tspan><tspan x="10.672" y="0" fill="#5A5A5A" font-family="'HelveticaNeue'" font-size="16.0243">b</tspan><tspan x="19.582" y="0" fill="#5A5A5A" font-family="'HelveticaNeue'" font-size="16.0243">ili</tspan><tspan x="30.253" y="0" fill="#5A5A5A" font-family="'HelveticaNeue'" font-size="16.0243">t</tspan><tspan x="35.589" y="0" fill="#5A5A5A" font-family="'HelveticaNeue'" font-size="16.0243">y</tspan></text>
	</g>
</g>
<g>
	<defs>
		<rect id="SVGID_11_" x="-74.139" y="0.001" width="640.972" height="384.581"/>
	</defs>
	<clipPath id="SVGID_12_">
		<use xlink:href="#SVGID_11_"  overflow="visible"/>
	</clipPath>
	<g clip-path="url(#SVGID_12_)">
		<text transform="matrix(1 0 0 1 341.9277 139.2153)"><tspan x="0" y="0" fill="#5A5A5A" font-family="'HelveticaNeue'" font-size="16.0243">H</tspan><tspan x="10.688" y="0" fill="#5A5A5A" font-family="'HelveticaNeue'" font-size="16.0243">a</tspan><tspan x="19.581" y="0" fill="#5A5A5A" font-family="'HelveticaNeue'" font-size="16.0243">n</tspan><tspan x="28.49" y="0" fill="#5A5A5A" font-family="'HelveticaNeue'" font-size="16.0243">d</tspan><tspan x="37.4" y="0" fill="#5A5A5A" font-family="'HelveticaNeue'" font-size="16.0243">lin</tspan><tspan x="53.424" y="0" fill="#5A5A5A" font-family="'HelveticaNeue'" font-size="16.0243">g</tspan><tspan x="62.333" y="0" fill="#5A5A5A" font-family="'HelveticaNeue'" font-size="16.0243"> </tspan><tspan x="67.669" y="0" fill="#5A5A5A" font-family="'HelveticaNeue'" font-size="16.0243">o</tspan><tspan x="76.578" y="0" fill="#5A5A5A" font-family="'HelveticaNeue'" font-size="16.0243">f</tspan><tspan x="81.914" y="0" fill="#5A5A5A" font-family="'HelveticaNeue'" font-size="16.0243"> </tspan></text>
	</g>
</g>
<g>
	<defs>
		<rect id="SVGID_13_" x="-74.139" y="0.001" width="640.972" height="384.581"/>
	</defs>
	<clipPath id="SVGID_14_">
		<use xlink:href="#SVGID_13_"  overflow="visible"/>
	</clipPath>
	<g clip-path="url(#SVGID_14_)">
		<text transform="matrix(1 0 0 1 349.0498 158.8013)"><tspan x="0" y="0" fill="#5A5A5A" font-family="'HelveticaNeue'" font-size="16.0243">Ec</tspan><tspan x="18.973" y="0" fill="#5A5A5A" font-family="'HelveticaNeue'" font-size="16.0243">o</tspan><tspan x="27.882" y="0" fill="#5A5A5A" font-family="'HelveticaNeue'" font-size="16.0243">n</tspan><tspan x="36.791" y="0" fill="#5A5A5A" font-family="'HelveticaNeue'" font-size="16.0243">o</tspan><tspan x="45.7" y="0" fill="#5A5A5A" font-family="'HelveticaNeue'" font-size="16.0243">m</tspan><tspan x="59.93" y="0" fill="#5A5A5A" font-family="'HelveticaNeue'" font-size="16.0243">y</tspan></text>
	</g>
</g>
<g>
	<defs>
		<rect id="SVGID_15_" x="-74.139" y="0.001" width="640.972" height="384.581"/>
	</defs>
	<clipPath id="SVGID_16_">
		<use xlink:href="#SVGID_15_"  overflow="visible"/>
	</clipPath>
	<g clip-path="url(#SVGID_16_)">
		<text transform="matrix(1 0 0 1 392.4521 240.2354)"><tspan x="0" y="0" fill="#5A5A5A" font-family="'HelveticaNeue'" font-size="16.0243">D</tspan><tspan x="10.688" y="0" fill="#5A5A5A" font-family="'HelveticaNeue'" font-size="16.0243">o</tspan><tspan x="19.598" y="0" fill="#5A5A5A" font-family="'HelveticaNeue'" font-size="16.0243">m</tspan><tspan x="33.827" y="0" fill="#5A5A5A" font-family="'HelveticaNeue'" font-size="16.0243">e</tspan><tspan x="42.72" y="0" fill="#5A5A5A" font-family="'HelveticaNeue'" font-size="16.0243">s</tspan><tspan x="51.613" y="0" fill="#5A5A5A" font-family="'HelveticaNeue'" font-size="16.0243">t</tspan><tspan x="56.949" y="0" fill="#5A5A5A" font-family="'HelveticaNeue'" font-size="16.0243">i</tspan><tspan x="60.507" y="0" fill="#5A5A5A" font-family="'HelveticaNeue'" font-size="16.0243">c</tspan><tspan x="69.4" y="0" fill="#5A5A5A" font-family="'HelveticaNeue'" font-size="16.0243"> </tspan></text>
	</g>
</g>
<g>
	<defs>
		<rect id="SVGID_17_" x="-74.139" y="0.001" width="640.972" height="384.581"/>
	</defs>
	<clipPath id="SVGID_18_">
		<use xlink:href="#SVGID_17_"  overflow="visible"/>
	</clipPath>
	<g clip-path="url(#SVGID_18_)">
		<text transform="matrix(1 0 0 1 362.1855 259.8203)"><tspan x="0" y="0" fill="#5A5A5A" font-family="'HelveticaNeue'" font-size="16.0243">Acc</tspan><tspan x="28.459" y="0" fill="#5A5A5A" font-family="'HelveticaNeue'" font-size="16.0243">o</tspan><tspan x="37.368" y="0" fill="#5A5A5A" font-family="'HelveticaNeue'" font-size="16.0243">m</tspan><tspan x="51.598" y="0" fill="#5A5A5A" font-family="'HelveticaNeue'" font-size="16.0243">p</tspan><tspan x="60.507" y="0" fill="#5A5A5A" font-family="'HelveticaNeue'" font-size="16.0243">li</tspan><tspan x="67.621" y="0" fill="#5A5A5A" font-family="'HelveticaNeue'" font-size="16.0243">s</tspan><tspan x="76.515" y="0" fill="#5A5A5A" font-family="'HelveticaNeue'" font-size="16.0243">h</tspan><tspan x="85.424" y="0" fill="#5A5A5A" font-family="'HelveticaNeue'" font-size="16.0243">m</tspan><tspan x="99.653" y="0" fill="#5A5A5A" font-family="'HelveticaNeue'" font-size="16.0243">e</tspan><tspan x="108.547" y="0" fill="#5A5A5A" font-family="'HelveticaNeue'" font-size="16.0243">n</tspan><tspan x="117.456" y="0" fill="#5A5A5A" font-family="'HelveticaNeue'" font-size="16.0243">t</tspan><tspan x="122.792" y="0" fill="#5A5A5A" font-family="'HelveticaNeue'" font-size="16.0243">s</tspan></text>
	</g>
</g>
<g>
	<defs>
		<rect id="SVGID_19_" x="-74.139" y="0.001" width="640.972" height="384.581"/>
	</defs>
	<clipPath id="SVGID_20_">
		<use xlink:href="#SVGID_19_"  overflow="visible"/>
	</clipPath>
	<g clip-path="url(#SVGID_20_)">
		<text transform="matrix(1 0 0 1 298.875 330.7998)"><tspan x="0" y="0" fill="#5A5A5A" font-family="'HelveticaNeue'" font-size="16.0243">I</tspan><tspan x="3.573" y="0" fill="#5A5A5A" font-family="'HelveticaNeue'" font-size="16.0243">n</tspan><tspan x="12.482" y="0" fill="#5A5A5A" font-family="'HelveticaNeue'" font-size="16.0243">te</tspan><tspan x="26.712" y="0" fill="#5A5A5A" font-family="'HelveticaNeue'" font-size="16.0243">g</tspan><tspan x="35.621" y="0" fill="#5A5A5A" font-family="'HelveticaNeue'" font-size="16.0243">ri</tspan><tspan x="44.515" y="0" fill="#5A5A5A" font-family="'HelveticaNeue'" font-size="16.0243">t</tspan><tspan x="49.851" y="0" fill="#5A5A5A" font-family="'HelveticaNeue'" font-size="16.0243">y</tspan></text>
	</g>
</g>
<g>
	<defs>
		<rect id="SVGID_21_" x="-74.139" y="0.001" width="640.972" height="384.581"/>
	</defs>
	<clipPath id="SVGID_22_">
		<use xlink:href="#SVGID_21_"  overflow="visible"/>
	</clipPath>
	<g clip-path="url(#SVGID_22_)">
		<text transform="matrix(1 0 0 1 94.5376 330.7998)"><tspan x="0" y="0" fill="#5A5A5A" font-family="'HelveticaNeue'" font-size="16.0243">Fo</tspan><tspan x="17.819" y="0" fill="#5A5A5A" font-family="'HelveticaNeue'" font-size="16.0243">r</tspan><tspan x="23.155" y="0" fill="#5A5A5A" font-family="'HelveticaNeue'" font-size="16.0243">e</tspan><tspan x="32.048" y="0" fill="#5A5A5A" font-family="'HelveticaNeue'" font-size="16.0243">i</tspan><tspan x="35.605" y="0" fill="#5A5A5A" font-family="'HelveticaNeue'" font-size="16.0243">g</tspan><tspan x="44.514" y="0" fill="#5A5A5A" font-family="'HelveticaNeue'" font-size="16.0243">n</tspan><tspan x="53.424" y="0" fill="#5A5A5A" font-family="'HelveticaNeue'" font-size="16.0243"> </tspan><tspan x="58.76" y="0" fill="#5A5A5A" font-family="'HelveticaNeue'" font-size="16.0243">P</tspan><tspan x="68.551" y="0" fill="#5A5A5A" font-family="'HelveticaNeue'" font-size="16.0243">o</tspan><tspan x="77.46" y="0" fill="#5A5A5A" font-family="'HelveticaNeue'" font-size="16.0243">li</tspan><tspan x="84.574" y="0" fill="#5A5A5A" font-family="'HelveticaNeue'" font-size="16.0243">c</tspan><tspan x="93.468" y="0" fill="#5A5A5A" font-family="'HelveticaNeue'" font-size="16.0243">y</tspan></text>
	</g>
</g>
<g>
	<defs>
		<rect id="SVGID_23_" x="-74.139" y="0.001" width="640.972" height="384.581"/>
	</defs>
	<clipPath id="SVGID_24_">
		<use xlink:href="#SVGID_23_"  overflow="visible"/>
	</clipPath>
	<g clip-path="url(#SVGID_24_)">
		<text transform="matrix(1 0 0 1 4.9844 249.791)"><tspan x="0" y="0" fill="#5A5A5A" font-family="'HelveticaNeue'" font-size="16.0243">L</tspan><tspan x="8.91" y="0" fill="#5A5A5A" font-family="'HelveticaNeue'" font-size="16.0243">ea</tspan><tspan x="26.696" y="0" fill="#5A5A5A" font-family="'HelveticaNeue'" font-size="16.0243">d</tspan><tspan x="35.605" y="0" fill="#5A5A5A" font-family="'HelveticaNeue'" font-size="16.0243">e</tspan><tspan x="44.499" y="0" fill="#5A5A5A" font-family="'HelveticaNeue'" font-size="16.0243">r</tspan><tspan x="49.834" y="0" fill="#5A5A5A" font-family="'HelveticaNeue'" font-size="16.0243">s</tspan><tspan x="58.728" y="0" fill="#5A5A5A" font-family="'HelveticaNeue'" font-size="16.0243">hi</tspan><tspan x="71.195" y="0" fill="#5A5A5A" font-family="'HelveticaNeue'" font-size="16.0243">p</tspan><tspan x="80.104" y="0" fill="#5A5A5A" font-family="'HelveticaNeue'" font-size="16.0243"> </tspan><tspan x="83.677" y="0" fill="#5A5A5A" font-family="'HelveticaNeue'" font-size="16.0243">A</tspan><tspan x="94.35" y="0" fill="#5A5A5A" font-family="'HelveticaNeue'" font-size="16.0243">b</tspan><tspan x="103.259" y="0" fill="#5A5A5A" font-family="'HelveticaNeue'" font-size="16.0243">ili</tspan><tspan x="113.93" y="0" fill="#5A5A5A" font-family="'HelveticaNeue'" font-size="16.0243">t</tspan><tspan x="119.266" y="0" fill="#5A5A5A" font-family="'HelveticaNeue'" font-size="16.0243">y</tspan></text>
	</g>
</g>
<g>
	<defs>
		<rect id="SVGID_25_" x="-74.139" y="0.001" width="640.972" height="384.581"/>
	</defs>
	<clipPath id="SVGID_26_">
		<use xlink:href="#SVGID_25_"  overflow="visible"/>
	</clipPath>
	<g clip-path="url(#SVGID_26_)">
		<text transform="matrix(1 0 0 1 73.4385 148.772)"><tspan x="0" y="0" fill="#5A5A5A" font-family="'HelveticaNeue'" font-size="16.0243">I</tspan><tspan x="3.573" y="0" fill="#5A5A5A" font-family="'HelveticaNeue'" font-size="16.0243">n</tspan><tspan x="12.483" y="0" fill="#5A5A5A" font-family="'HelveticaNeue'" font-size="16.0243">te</tspan><tspan x="26.712" y="0" fill="#5A5A5A" font-family="'HelveticaNeue'" font-size="16.0243">lli</tspan><tspan x="37.383" y="0" fill="#5A5A5A" font-family="'HelveticaNeue'" font-size="16.0243">g</tspan><tspan x="46.292" y="0" fill="#5A5A5A" font-family="'HelveticaNeue'" font-size="16.0243">e</tspan><tspan x="55.186" y="0" fill="#5A5A5A" font-family="'HelveticaNeue'" font-size="16.0243">n</tspan><tspan x="64.095" y="0" fill="#5A5A5A" font-family="'HelveticaNeue'" font-size="16.0243">c</tspan><tspan x="72.989" y="0" fill="#5A5A5A" font-family="'HelveticaNeue'" font-size="16.0243">e</tspan></text>
	</g>
</g>
<g>
	<defs>
		<rect id="SVGID_27_" x="-74.139" y="0.001" width="640.972" height="384.581"/>
	</defs>
	<clipPath id="SVGID_28_">
		<use xlink:href="#SVGID_27_"  overflow="visible"/>
	</clipPath>
	<rect x="130.616" y="26.709" clip-path="url(#SVGID_28_)" fill="#A2CF6B" width="8.903" height="8.902"/>
</g>
<g>
	<defs>
		<rect id="SVGID_29_" x="-74.139" y="0.001" width="640.972" height="384.581"/>
	</defs>
	<clipPath id="SVGID_30_">
		<use xlink:href="#SVGID_29_"  overflow="visible"/>
	</clipPath>
	<g clip-path="url(#SVGID_30_)">
		<text transform="matrix(1 0 0 1 142.1377 38.269)"><tspan x="0" y="0" fill="#5A5A5A" font-family="'HelveticaNeue'" font-size="16.0243">J</tspan><tspan x="8.894" y="0" fill="#5A5A5A" font-family="'HelveticaNeue'" font-size="16.0243">o</tspan><tspan x="17.803" y="0" fill="#5A5A5A" font-family="'HelveticaNeue'" font-size="16.0243">hn</tspan><tspan x="35.622" y="0" fill="#5A5A5A" font-family="'HelveticaNeue'" font-size="16.0243"> </tspan><tspan x="39.195" y="0" fill="#5A5A5A" font-family="'HelveticaNeue'" font-size="16.0243">F</tspan><tspan x="48.104" y="0" fill="#5A5A5A" font-family="'HelveticaNeue'" font-size="16.0243">. </tspan><tspan x="58.777" y="0" fill="#5A5A5A" font-family="'HelveticaNeue'" font-size="16.0243">K</tspan><tspan x="69.465" y="0" fill="#5A5A5A" font-family="'HelveticaNeue'" font-size="16.0243">e</tspan><tspan x="78.358" y="0" fill="#5A5A5A" font-family="'HelveticaNeue'" font-size="16.0243">nn</tspan><tspan x="96.177" y="0" fill="#5A5A5A" font-family="'HelveticaNeue'" font-size="16.0243">e</tspan><tspan x="105.07" y="0" fill="#5A5A5A" font-family="'HelveticaNeue'" font-size="16.0243">d</tspan><tspan x="113.979" y="0" fill="#5A5A5A" font-family="'HelveticaNeue'" font-size="16.0243">y</tspan></text>
	</g>
</g>
<g>
	<defs>
		<rect id="SVGID_31_" x="-74.139" y="0.001" width="640.972" height="384.581"/>
	</defs>
	<clipPath id="SVGID_32_">
		<use xlink:href="#SVGID_31_"  overflow="visible"/>
	</clipPath>
	<rect x="283.737" y="26.709" clip-path="url(#SVGID_32_)" fill="#E8A3C8" width="8.902" height="8.902"/>
</g>
<g>
	<defs>
		<rect id="SVGID_33_" x="-74.139" y="0.001" width="640.972" height="384.581"/>
	</defs>
	<clipPath id="SVGID_34_">
		<use xlink:href="#SVGID_33_"  overflow="visible"/>
	</clipPath>
	<g clip-path="url(#SVGID_34_)">
		<text transform="matrix(1 0 0 1 295.5049 38.269)"><tspan x="0" y="0" fill="#5A5A5A" font-family="'HelveticaNeue'" font-size="16.0243">B</tspan><tspan x="10.688" y="0" fill="#5A5A5A" font-family="'HelveticaNeue'" font-size="16.0243">ill</tspan><tspan x="21.359" y="0" fill="#5A5A5A" font-family="'HelveticaNeue'" font-size="16.0243"> </tspan><tspan x="26.695" y="0" fill="#5A5A5A" font-family="'HelveticaNeue'" font-size="16.0243">C</tspan><tspan x="37.384" y="0" fill="#5A5A5A" font-family="'HelveticaNeue'" font-size="16.0243">lin</tspan><tspan x="53.407" y="0" fill="#5A5A5A" font-family="'HelveticaNeue'" font-size="16.0243">t</tspan><tspan x="58.743" y="0" fill="#5A5A5A" font-family="'HelveticaNeue'" font-size="16.0243">o</tspan><tspan x="67.652" y="0" fill="#5A5A5A" font-family="'HelveticaNeue'" font-size="16.0243">n</tspan></text>
	</g>
</g>
</svg>
