<?xml version="1.0" encoding="utf-8"?>
<!-- Generator: Adobe Illustrator 16.0.4, SVG Export Plug-In . SVG Version: 6.00 Build 0)  -->
<!DOCTYPE svg PUBLIC "-//W3C//DTD SVG 1.1//EN" "http://www.w3.org/Graphics/SVG/1.1/DTD/svg11.dtd">
<svg version="1.1" id="Layer_1" xmlns="http://www.w3.org/2000/svg" xmlns:xlink="http://www.w3.org/1999/xlink" x="0px" y="0px"
	 width="500px" height="386.363px" viewBox="0 0 500 386.363" enable-background="new 0 0 500 386.363" xml:space="preserve">
<g>
	<defs>
		<rect id="SVGID_1_" x="-64.354" width="643.938" height="386.363"/>
	</defs>
	<clipPath id="SVGID_2_">
		<use xlink:href="#SVGID_1_"  overflow="visible"/>
	</clipPath>
	<path clip-path="url(#SVGID_2_)" fill="none" stroke="#D9D9D8" stroke-linejoin="round" stroke-miterlimit="10" d="
		M169.073,143.992l89.437-42.929 M145.82,242.371l23.253-98.379 M208.425,321.075l-62.605-78.704 M308.594,321.075H208.425
		 M371.198,242.371l-62.604,78.704 M349.734,143.992l21.464,98.379 M258.51,101.062l91.225,42.929 M186.96,160.09l71.549-35.774
		 M169.073,237.005l17.887-76.915 M219.157,299.61l-50.084-62.605 M299.649,299.61h-80.492 M347.945,237.005l-48.296,62.605
		 M330.058,160.09l17.888,76.915 M258.51,124.316l71.548,35.774 M204.848,174.4l53.662-26.831 M190.538,231.639l14.31-57.239
		 M228.101,279.935l-37.563-48.296 M288.918,279.935h-60.817 M326.48,231.639l-37.562,48.296 M312.171,174.4l14.31,57.239
		 M258.51,147.569l53.661,26.831 M222.735,188.71l35.775-17.887 M213.792,226.273l8.943-37.563 M238.833,258.47l-25.042-32.196
		 M278.186,258.47h-39.352 M303.228,226.273l-25.042,32.196 M294.283,188.71l8.944,37.563 M258.51,170.823l35.773,17.887
		 M240.622,203.02l17.888-8.943 M237.044,222.695l3.578-19.676 M249.565,237.005l-12.521-14.31 M269.241,237.005h-19.676
		 M281.763,222.695l-12.521,14.31 M276.396,203.02l5.366,19.676 M258.51,194.076l17.887,8.943"/>
</g>
<g>
	<defs>
		<rect id="SVGID_3_" x="143.137" y="100.168" width="230.745" height="232.534"/>
	</defs>
	<clipPath id="SVGID_4_">
		<use xlink:href="#SVGID_3_"  overflow="visible"/>
	</clipPath>
	<polygon clip-path="url(#SVGID_4_)" fill="#6FA6D9" points="259.403,157.407 325.586,162.773 338.107,234.322 298.756,300.505 
		218.263,300.505 164.602,237.899 207.531,175.294 	"/>
</g>
<g>
	<defs>
		<rect id="SVGID_5_" x="143.137" y="100.168" width="230.745" height="232.534"/>
	</defs>
	<clipPath id="SVGID_6_">
		<use xlink:href="#SVGID_5_"  overflow="visible"/>
	</clipPath>
	<polygon opacity="0.8" clip-path="url(#SVGID_6_)" fill="#EF8860" points="259.403,143.098 327.375,160.985 355.994,239.688 
		270.136,241.477 257.615,218.224 184.277,234.322 211.108,178.872 	"/>
</g>
<g>
	<defs>
		<rect id="SVGID_7_" x="-64.354" width="643.938" height="386.363"/>
	</defs>
	<clipPath id="SVGID_8_">
		<use xlink:href="#SVGID_7_"  overflow="visible"/>
	</clipPath>
	<g clip-path="url(#SVGID_8_)">
		<text transform="matrix(1 0 0 1 201.9604 74.5127)"><tspan x="0" y="0" fill="#5A5A5A" font-family="'HelveticaNeue'" font-size="16.0985">C</tspan><tspan x="10.737" y="0" fill="#5A5A5A" font-family="'HelveticaNeue'" font-size="16.0985">o</tspan><tspan x="19.688" y="0" fill="#5A5A5A" font-family="'HelveticaNeue'" font-size="16.0985">mm</tspan><tspan x="48.279" y="0" fill="#5A5A5A" font-family="'HelveticaNeue'" font-size="16.0985">uni</tspan><tspan x="69.753" y="0" fill="#5A5A5A" font-family="'HelveticaNeue'" font-size="16.0985">cat</tspan><tspan x="92.983" y="0" fill="#5A5A5A" font-family="'HelveticaNeue'" font-size="16.0985">i</tspan><tspan x="96.557" y="0" fill="#5A5A5A" font-family="'HelveticaNeue'" font-size="16.0985">o</tspan><tspan x="105.507" y="0" fill="#5A5A5A" font-family="'HelveticaNeue'" font-size="16.0985">n </tspan></text>
	</g>
</g>
<g>
	<defs>
		<rect id="SVGID_9_" x="-64.354" width="643.938" height="386.363"/>
	</defs>
	<clipPath id="SVGID_10_">
		<use xlink:href="#SVGID_9_"  overflow="visible"/>
	</clipPath>
	<g clip-path="url(#SVGID_10_)">
		<text transform="matrix(1 0 0 1 235.9463 94.189)"><tspan x="0" y="0" fill="#5A5A5A" font-family="'HelveticaNeue'" font-size="16.0985">A</tspan><tspan x="10.721" y="0" fill="#5A5A5A" font-family="'HelveticaNeue'" font-size="16.0985">b</tspan><tspan x="19.672" y="0" fill="#5A5A5A" font-family="'HelveticaNeue'" font-size="16.0985">ili</tspan><tspan x="30.393" y="0" fill="#5A5A5A" font-family="'HelveticaNeue'" font-size="16.0985">t</tspan><tspan x="35.753" y="0" fill="#5A5A5A" font-family="'HelveticaNeue'" font-size="16.0985">y</tspan></text>
	</g>
</g>
<g>
	<defs>
		<rect id="SVGID_11_" x="-64.354" width="643.938" height="386.363"/>
	</defs>
	<clipPath id="SVGID_12_">
		<use xlink:href="#SVGID_11_"  overflow="visible"/>
	</clipPath>
	<g clip-path="url(#SVGID_12_)">
		<text transform="matrix(1 0 0 1 353.1484 138.8823)"><tspan x="0" y="0" fill="#5A5A5A" font-family="'HelveticaNeue'" font-size="16.0985">H</tspan><tspan x="10.737" y="0" fill="#5A5A5A" font-family="'HelveticaNeue'" font-size="16.0985">a</tspan><tspan x="19.672" y="0" fill="#5A5A5A" font-family="'HelveticaNeue'" font-size="16.0985">n</tspan><tspan x="28.623" y="0" fill="#5A5A5A" font-family="'HelveticaNeue'" font-size="16.0985">d</tspan><tspan x="37.573" y="0" fill="#5A5A5A" font-family="'HelveticaNeue'" font-size="16.0985">lin</tspan><tspan x="53.671" y="0" fill="#5A5A5A" font-family="'HelveticaNeue'" font-size="16.0985">g</tspan><tspan x="62.622" y="0" fill="#5A5A5A" font-family="'HelveticaNeue'" font-size="16.0985"> </tspan><tspan x="67.982" y="0" fill="#5A5A5A" font-family="'HelveticaNeue'" font-size="16.0985">o</tspan><tspan x="76.933" y="0" fill="#5A5A5A" font-family="'HelveticaNeue'" font-size="16.0985">f</tspan><tspan x="82.294" y="0" fill="#5A5A5A" font-family="'HelveticaNeue'" font-size="16.0985"> </tspan></text>
	</g>
</g>
<g>
	<defs>
		<rect id="SVGID_13_" x="-64.354" width="643.938" height="386.363"/>
	</defs>
	<clipPath id="SVGID_14_">
		<use xlink:href="#SVGID_13_"  overflow="visible"/>
	</clipPath>
	<g clip-path="url(#SVGID_14_)">
		<text transform="matrix(1 0 0 1 360.3027 158.5581)"><tspan x="0" y="0" fill="#5A5A5A" font-family="'HelveticaNeue'" font-size="16.0985">Ec</tspan><tspan x="19.061" y="0" fill="#5A5A5A" font-family="'HelveticaNeue'" font-size="16.0985">o</tspan><tspan x="28.011" y="0" fill="#5A5A5A" font-family="'HelveticaNeue'" font-size="16.0985">n</tspan><tspan x="36.962" y="0" fill="#5A5A5A" font-family="'HelveticaNeue'" font-size="16.0985">o</tspan><tspan x="45.912" y="0" fill="#5A5A5A" font-family="'HelveticaNeue'" font-size="16.0985">m</tspan><tspan x="60.207" y="0" fill="#5A5A5A" font-family="'HelveticaNeue'" font-size="16.0985">y</tspan></text>
	</g>
</g>
<g>
	<defs>
		<rect id="SVGID_15_" x="-64.354" width="643.938" height="386.363"/>
	</defs>
	<clipPath id="SVGID_16_">
		<use xlink:href="#SVGID_15_"  overflow="visible"/>
	</clipPath>
	<g clip-path="url(#SVGID_16_)">
		<text transform="matrix(1 0 0 1 403.9082 240.3691)"><tspan x="0" y="0" fill="#5A5A5A" font-family="'HelveticaNeue'" font-size="16.0985">D</tspan><tspan x="10.737" y="0" fill="#5A5A5A" font-family="'HelveticaNeue'" font-size="16.0985">o</tspan><tspan x="19.688" y="0" fill="#5A5A5A" font-family="'HelveticaNeue'" font-size="16.0985">m</tspan><tspan x="33.983" y="0" fill="#5A5A5A" font-family="'HelveticaNeue'" font-size="16.0985">e</tspan><tspan x="42.918" y="0" fill="#5A5A5A" font-family="'HelveticaNeue'" font-size="16.0985">s</tspan><tspan x="51.853" y="0" fill="#5A5A5A" font-family="'HelveticaNeue'" font-size="16.0985">t</tspan><tspan x="57.213" y="0" fill="#5A5A5A" font-family="'HelveticaNeue'" font-size="16.0985">i</tspan><tspan x="60.787" y="0" fill="#5A5A5A" font-family="'HelveticaNeue'" font-size="16.0985">c</tspan><tspan x="69.722" y="0" fill="#5A5A5A" font-family="'HelveticaNeue'" font-size="16.0985"> </tspan></text>
	</g>
</g>
<g>
	<defs>
		<rect id="SVGID_17_" x="-64.354" width="643.938" height="386.363"/>
	</defs>
	<clipPath id="SVGID_18_">
		<use xlink:href="#SVGID_17_"  overflow="visible"/>
	</clipPath>
	<g clip-path="url(#SVGID_18_)">
		<text transform="matrix(1 0 0 1 373.5 260.0449)"><tspan x="0" y="0" fill="#5A5A5A" font-family="'HelveticaNeue'" font-size="16.0985">Acc</tspan><tspan x="28.591" y="0" fill="#5A5A5A" font-family="'HelveticaNeue'" font-size="16.0985">o</tspan><tspan x="37.541" y="0" fill="#5A5A5A" font-family="'HelveticaNeue'" font-size="16.0985">m</tspan><tspan x="51.836" y="0" fill="#5A5A5A" font-family="'HelveticaNeue'" font-size="16.0985">p</tspan><tspan x="60.787" y="0" fill="#5A5A5A" font-family="'HelveticaNeue'" font-size="16.0985">li</tspan><tspan x="67.934" y="0" fill="#5A5A5A" font-family="'HelveticaNeue'" font-size="16.0985">s</tspan><tspan x="76.869" y="0" fill="#5A5A5A" font-family="'HelveticaNeue'" font-size="16.0985">h</tspan><tspan x="85.819" y="0" fill="#5A5A5A" font-family="'HelveticaNeue'" font-size="16.0985">m</tspan><tspan x="100.115" y="0" fill="#5A5A5A" font-family="'HelveticaNeue'" font-size="16.0985">e</tspan><tspan x="109.049" y="0" fill="#5A5A5A" font-family="'HelveticaNeue'" font-size="16.0985">n</tspan><tspan x="118" y="0" fill="#5A5A5A" font-family="'HelveticaNeue'" font-size="16.0985">t</tspan><tspan x="123.36" y="0" fill="#5A5A5A" font-family="'HelveticaNeue'" font-size="16.0985">s</tspan></text>
	</g>
</g>
<g>
	<defs>
		<rect id="SVGID_19_" x="-64.354" width="643.938" height="386.363"/>
	</defs>
	<clipPath id="SVGID_20_">
		<use xlink:href="#SVGID_19_"  overflow="visible"/>
	</clipPath>
	<g clip-path="url(#SVGID_20_)">
		<text transform="matrix(1 0 0 1 309.8975 331.3535)"><tspan x="0" y="0" fill="#5A5A5A" font-family="'HelveticaNeue'" font-size="16.0985">I</tspan><tspan x="3.59" y="0" fill="#5A5A5A" font-family="'HelveticaNeue'" font-size="16.0985">n</tspan><tspan x="12.54" y="0" fill="#5A5A5A" font-family="'HelveticaNeue'" font-size="16.0985">te</tspan><tspan x="26.836" y="0" fill="#5A5A5A" font-family="'HelveticaNeue'" font-size="16.0985">g</tspan><tspan x="35.786" y="0" fill="#5A5A5A" font-family="'HelveticaNeue'" font-size="16.0985">ri</tspan><tspan x="44.721" y="0" fill="#5A5A5A" font-family="'HelveticaNeue'" font-size="16.0985">t</tspan><tspan x="50.081" y="0" fill="#5A5A5A" font-family="'HelveticaNeue'" font-size="16.0985">y</tspan></text>
	</g>
</g>
<g>
	<defs>
		<rect id="SVGID_21_" x="-64.354" width="643.938" height="386.363"/>
	</defs>
	<clipPath id="SVGID_22_">
		<use xlink:href="#SVGID_21_"  overflow="visible"/>
	</clipPath>
	<g clip-path="url(#SVGID_22_)">
		<text transform="matrix(1 0 0 1 104.6133 331.3535)"><tspan x="0" y="0" fill="#5A5A5A" font-family="'HelveticaNeue'" font-size="16.0985">Fo</tspan><tspan x="17.901" y="0" fill="#5A5A5A" font-family="'HelveticaNeue'" font-size="16.0985">r</tspan><tspan x="23.262" y="0" fill="#5A5A5A" font-family="'HelveticaNeue'" font-size="16.0985">e</tspan><tspan x="32.196" y="0" fill="#5A5A5A" font-family="'HelveticaNeue'" font-size="16.0985">i</tspan><tspan x="35.77" y="0" fill="#5A5A5A" font-family="'HelveticaNeue'" font-size="16.0985">g</tspan><tspan x="44.72" y="0" fill="#5A5A5A" font-family="'HelveticaNeue'" font-size="16.0985">n</tspan><tspan x="53.671" y="0" fill="#5A5A5A" font-family="'HelveticaNeue'" font-size="16.0985"> </tspan><tspan x="59.032" y="0" fill="#5A5A5A" font-family="'HelveticaNeue'" font-size="16.0985">P</tspan><tspan x="68.868" y="0" fill="#5A5A5A" font-family="'HelveticaNeue'" font-size="16.0985">o</tspan><tspan x="77.818" y="0" fill="#5A5A5A" font-family="'HelveticaNeue'" font-size="16.0985">li</tspan><tspan x="84.966" y="0" fill="#5A5A5A" font-family="'HelveticaNeue'" font-size="16.0985">c</tspan><tspan x="93.9" y="0" fill="#5A5A5A" font-family="'HelveticaNeue'" font-size="16.0985">y</tspan></text>
	</g>
</g>
<g>
	<defs>
		<rect id="SVGID_23_" x="-64.354" width="643.938" height="386.363"/>
	</defs>
	<clipPath id="SVGID_24_">
		<use xlink:href="#SVGID_23_"  overflow="visible"/>
	</clipPath>
	<g clip-path="url(#SVGID_24_)">
		<text transform="matrix(1 0 0 1 14.6455 249.9717)"><tspan x="0" y="0" fill="#5A5A5A" font-family="'HelveticaNeue'" font-size="16.0985">L</tspan><tspan x="8.951" y="0" fill="#5A5A5A" font-family="'HelveticaNeue'" font-size="16.0985">ea</tspan><tspan x="26.82" y="0" fill="#5A5A5A" font-family="'HelveticaNeue'" font-size="16.0985">d</tspan><tspan x="35.77" y="0" fill="#5A5A5A" font-family="'HelveticaNeue'" font-size="16.0985">e</tspan><tspan x="44.705" y="0" fill="#5A5A5A" font-family="'HelveticaNeue'" font-size="16.0985">r</tspan><tspan x="50.065" y="0" fill="#5A5A5A" font-family="'HelveticaNeue'" font-size="16.0985">s</tspan><tspan x="59" y="0" fill="#5A5A5A" font-family="'HelveticaNeue'" font-size="16.0985">hi</tspan><tspan x="71.524" y="0" fill="#5A5A5A" font-family="'HelveticaNeue'" font-size="16.0985">p</tspan><tspan x="80.475" y="0" fill="#5A5A5A" font-family="'HelveticaNeue'" font-size="16.0985"> </tspan><tspan x="84.064" y="0" fill="#5A5A5A" font-family="'HelveticaNeue'" font-size="16.0985">A</tspan><tspan x="94.786" y="0" fill="#5A5A5A" font-family="'HelveticaNeue'" font-size="16.0985">b</tspan><tspan x="103.737" y="0" fill="#5A5A5A" font-family="'HelveticaNeue'" font-size="16.0985">ili</tspan><tspan x="114.458" y="0" fill="#5A5A5A" font-family="'HelveticaNeue'" font-size="16.0985">t</tspan><tspan x="119.818" y="0" fill="#5A5A5A" font-family="'HelveticaNeue'" font-size="16.0985">y</tspan></text>
	</g>
</g>
<g>
	<defs>
		<rect id="SVGID_25_" x="-64.354" width="643.938" height="386.363"/>
	</defs>
	<clipPath id="SVGID_26_">
		<use xlink:href="#SVGID_25_"  overflow="visible"/>
	</clipPath>
	<g clip-path="url(#SVGID_26_)">
		<text transform="matrix(1 0 0 1 83.418 148.4829)"><tspan x="0" y="0" fill="#5A5A5A" font-family="'HelveticaNeue'" font-size="16.0985">I</tspan><tspan x="3.59" y="0" fill="#5A5A5A" font-family="'HelveticaNeue'" font-size="16.0985">n</tspan><tspan x="12.541" y="0" fill="#5A5A5A" font-family="'HelveticaNeue'" font-size="16.0985">te</tspan><tspan x="26.835" y="0" fill="#5A5A5A" font-family="'HelveticaNeue'" font-size="16.0985">lli</tspan><tspan x="37.556" y="0" fill="#5A5A5A" font-family="'HelveticaNeue'" font-size="16.0985">g</tspan><tspan x="46.507" y="0" fill="#5A5A5A" font-family="'HelveticaNeue'" font-size="16.0985">e</tspan><tspan x="55.441" y="0" fill="#5A5A5A" font-family="'HelveticaNeue'" font-size="16.0985">n</tspan><tspan x="64.392" y="0" fill="#5A5A5A" font-family="'HelveticaNeue'" font-size="16.0985">c</tspan><tspan x="73.327" y="0" fill="#5A5A5A" font-family="'HelveticaNeue'" font-size="16.0985">e</tspan></text>
	</g>
</g>
<g>
	<defs>
		<rect id="SVGID_27_" x="-64.354" width="643.938" height="386.363"/>
	</defs>
	<clipPath id="SVGID_28_">
		<use xlink:href="#SVGID_27_"  overflow="visible"/>
	</clipPath>
	<rect x="87.687" y="26.831" clip-path="url(#SVGID_28_)" fill="#6FA5D9" width="8.944" height="8.943"/>
</g>
<g>
	<defs>
		<rect id="SVGID_29_" x="-64.354" width="643.938" height="386.363"/>
	</defs>
	<clipPath id="SVGID_30_">
		<use xlink:href="#SVGID_29_"  overflow="visible"/>
	</clipPath>
	<g clip-path="url(#SVGID_30_)">
		<text transform="matrix(1 0 0 1 99.3496 37.4688)"><tspan x="0" y="0" fill="#5A5A5A" font-family="'HelveticaNeue'" font-size="16.0985">D</tspan><tspan x="10.738" y="0" fill="#5A5A5A" font-family="'HelveticaNeue'" font-size="16.0985">w</tspan><tspan x="23.246" y="0" fill="#5A5A5A" font-family="'HelveticaNeue'" font-size="16.0985">i</tspan><tspan x="26.82" y="0" fill="#5A5A5A" font-family="'HelveticaNeue'" font-size="16.0985">g</tspan><tspan x="35.77" y="0" fill="#5A5A5A" font-family="'HelveticaNeue'" font-size="16.0985">h</tspan><tspan x="44.721" y="0" fill="#5A5A5A" font-family="'HelveticaNeue'" font-size="16.0985">t</tspan><tspan x="50.082" y="0" fill="#5A5A5A" font-family="'HelveticaNeue'" font-size="16.0985"> </tspan><tspan x="55.442" y="0" fill="#5A5A5A" font-family="'HelveticaNeue'" font-size="16.0985">D</tspan><tspan x="66.18" y="0" fill="#5A5A5A" font-family="'HelveticaNeue'" font-size="16.0985">.</tspan><tspan x="71.541" y="0" fill="#5A5A5A" font-family="'HelveticaNeue'" font-size="16.0985"> </tspan><tspan x="75.114" y="0" fill="#5A5A5A" font-family="'HelveticaNeue'" font-size="16.0985">E</tspan><tspan x="84.065" y="0" fill="#5A5A5A" font-family="'HelveticaNeue'" font-size="16.0985">i</tspan><tspan x="87.639" y="0" fill="#5A5A5A" font-family="'HelveticaNeue'" font-size="16.0985">s</tspan><tspan x="96.573" y="0" fill="#5A5A5A" font-family="'HelveticaNeue'" font-size="16.0985">e</tspan><tspan x="105.508" y="0" fill="#5A5A5A" font-family="'HelveticaNeue'" font-size="16.0985">nh</tspan><tspan x="123.409" y="0" fill="#5A5A5A" font-family="'HelveticaNeue'" font-size="16.0985">o</tspan><tspan x="132.36" y="0" fill="#5A5A5A" font-family="'HelveticaNeue'" font-size="16.0985">w</tspan><tspan x="144.868" y="0" fill="#5A5A5A" font-family="'HelveticaNeue'" font-size="16.0985">e</tspan><tspan x="153.803" y="0" fill="#5A5A5A" font-family="'HelveticaNeue'" font-size="16.0985">r</tspan></text>
	</g>
</g>
<g>
	<defs>
		<rect id="SVGID_31_" x="-64.354" width="643.938" height="386.363"/>
	</defs>
	<clipPath id="SVGID_32_">
		<use xlink:href="#SVGID_31_"  overflow="visible"/>
	</clipPath>
	<rect x="284.445" y="26.831" clip-path="url(#SVGID_32_)" fill="#EF8961" width="8.944" height="8.943"/>
</g>
<g>
	<defs>
		<rect id="SVGID_33_" x="-64.354" width="643.938" height="386.363"/>
	</defs>
	<clipPath id="SVGID_34_">
		<use xlink:href="#SVGID_33_"  overflow="visible"/>
	</clipPath>
	<g clip-path="url(#SVGID_34_)">
		<text transform="matrix(1 0 0 1 296.9551 37.4688)"><tspan x="0" y="0" fill="#5A5A5A" font-family="'HelveticaNeue'" font-size="16.0985">L</tspan><tspan x="8.951" y="0" fill="#5A5A5A" font-family="'HelveticaNeue'" font-size="16.0985">y</tspan><tspan x="17.886" y="0" fill="#5A5A5A" font-family="'HelveticaNeue'" font-size="16.0985">n</tspan><tspan x="26.836" y="0" fill="#5A5A5A" font-family="'HelveticaNeue'" font-size="16.0985">d</tspan><tspan x="35.787" y="0" fill="#5A5A5A" font-family="'HelveticaNeue'" font-size="16.0985">o</tspan><tspan x="44.737" y="0" fill="#5A5A5A" font-family="'HelveticaNeue'" font-size="16.0985">n</tspan><tspan x="53.688" y="0" fill="#5A5A5A" font-family="'HelveticaNeue'" font-size="16.0985"> </tspan><tspan x="59.049" y="0" fill="#5A5A5A" font-family="'HelveticaNeue'" font-size="16.0985">B</tspan><tspan x="69.786" y="0" fill="#5A5A5A" font-family="'HelveticaNeue'" font-size="16.0985">.</tspan><tspan x="75.147" y="0" fill="#5A5A5A" font-family="'HelveticaNeue'" font-size="16.0985"> </tspan><tspan x="78.737" y="0" fill="#5A5A5A" font-family="'HelveticaNeue'" font-size="16.0985">J</tspan><tspan x="87.672" y="0" fill="#5A5A5A" font-family="'HelveticaNeue'" font-size="16.0985">o</tspan><tspan x="96.622" y="0" fill="#5A5A5A" font-family="'HelveticaNeue'" font-size="16.0985">hn</tspan><tspan x="114.523" y="0" fill="#5A5A5A" font-family="'HelveticaNeue'" font-size="16.0985">s</tspan><tspan x="123.458" y="0" fill="#5A5A5A" font-family="'HelveticaNeue'" font-size="16.0985">o</tspan><tspan x="132.409" y="0" fill="#5A5A5A" font-family="'HelveticaNeue'" font-size="16.0985">n</tspan></text>
	</g>
</g>
</svg>
