<?xml version="1.0" encoding="utf-8"?>
<!-- Generator: Adobe Illustrator 16.0.4, SVG Export Plug-In . SVG Version: 6.00 Build 0)  -->
<!DOCTYPE svg PUBLIC "-//W3C//DTD SVG 1.1//EN" "http://www.w3.org/Graphics/SVG/1.1/DTD/svg11.dtd">
<svg version="1.1" id="Layer_1" xmlns="http://www.w3.org/2000/svg" xmlns:xlink="http://www.w3.org/1999/xlink" x="0px" y="0px"
	 width="500px" height="386.363px" viewBox="0 0 500 386.363" enable-background="new 0 0 500 386.363" xml:space="preserve">
<g>
	<defs>
		<rect id="SVGID_1_" x="-76.182" y="-6.175" width="640.971" height="384.583"/>
	</defs>
	<clipPath id="SVGID_2_">
		<use xlink:href="#SVGID_1_"  overflow="visible"/>
	</clipPath>
	<path clip-path="url(#SVGID_2_)" fill="none" stroke="#D9D9D8" stroke-linejoin="round" stroke-miterlimit="10" d="
		M156.171,138.935l89.022-44.512 M133.023,235.081l23.148-96.146 M195.341,313.423l-62.318-78.342 M295.046,313.423h-99.705
		 M357.364,235.081l-62.318,78.342 M336,138.935l21.364,96.146 M245.194,94.422L336,138.935 M173.976,153.179l71.218-35.611
		 M156.171,229.734l17.804-76.556 M206.024,292.057l-49.853-62.322 M286.145,292.057h-80.121 M334.218,229.734l-48.073,62.322
		 M316.413,153.179l17.805,76.556 M245.194,117.568l71.219,35.611 M191.78,167.422l53.414-26.707 M177.536,224.396l14.244-56.974
		 M214.926,272.47l-37.39-48.073 M275.463,272.47h-60.537 M312.854,224.396l-37.391,48.073 M298.609,167.422l14.244,56.974
		 M245.194,140.715l53.416,26.707 M209.584,181.664l35.609-17.802 M200.682,220.833l8.903-39.169 M225.61,251.104l-24.928-30.271
		 M264.779,251.104H225.61 M289.708,220.833l-24.929,30.271 M280.805,181.664l8.903,39.169 M245.194,163.861l35.611,17.802
		 M227.39,195.912l17.804-8.903 M223.829,215.492l3.562-19.58 M236.292,229.734l-12.464-14.242 M255.877,229.734h-19.584
		 M268.34,215.492l-12.463,14.242 M262.999,195.912l5.341,19.58 M245.194,187.009l17.805,8.903"/>
</g>
<g>
	<defs>
		<rect id="SVGID_3_" x="130.354" y="93.533" width="229.68" height="231.462"/>
	</defs>
	<clipPath id="SVGID_4_">
		<use xlink:href="#SVGID_3_"  overflow="visible"/>
	</clipPath>
	<polygon clip-path="url(#SVGID_4_)" fill="#9A79AF" points="246.084,95.312 335.108,138.044 349.353,234.188 278.134,275.142 
		196.231,312.53 141.037,234.188 176.646,154.069 	"/>
</g>
<g>
	<defs>
		<rect id="SVGID_5_" x="130.354" y="93.533" width="229.68" height="231.462"/>
	</defs>
	<clipPath id="SVGID_6_">
		<use xlink:href="#SVGID_5_"  overflow="visible"/>
	</clipPath>
	<polygon clip-path="url(#SVGID_6_)" fill="#7FBF7B" points="246.084,203.922 249.646,205.702 260.328,212.824 251.426,221.727 
		242.524,214.604 230.061,212.824 240.743,205.702 	"/>
</g>
<g>
	<defs>
		<rect id="SVGID_7_" x="-76.182" y="-6.175" width="640.971" height="384.583"/>
	</defs>
	<clipPath id="SVGID_8_">
		<use xlink:href="#SVGID_7_"  overflow="visible"/>
	</clipPath>
	<g clip-path="url(#SVGID_8_)">
		<text transform="matrix(1 0 0 1 188.9072 68.1558)"><tspan x="0" y="0" fill="#5A5A5A" font-family="'HelveticaNeue'" font-size="16.0243">C</tspan><tspan x="10.688" y="0" fill="#5A5A5A" font-family="'HelveticaNeue'" font-size="16.0243">o</tspan><tspan x="19.597" y="0" fill="#5A5A5A" font-family="'HelveticaNeue'" font-size="16.0243">mm</tspan><tspan x="48.056" y="0" fill="#5A5A5A" font-family="'HelveticaNeue'" font-size="16.0243">uni</tspan><tspan x="69.433" y="0" fill="#5A5A5A" font-family="'HelveticaNeue'" font-size="16.0243">cat</tspan><tspan x="92.555" y="0" fill="#5A5A5A" font-family="'HelveticaNeue'" font-size="16.0243">i</tspan><tspan x="96.112" y="0" fill="#5A5A5A" font-family="'HelveticaNeue'" font-size="16.0243">o</tspan><tspan x="105.021" y="0" fill="#5A5A5A" font-family="'HelveticaNeue'" font-size="16.0243">n </tspan></text>
	</g>
</g>
<g>
	<defs>
		<rect id="SVGID_9_" x="-76.182" y="-6.175" width="640.971" height="384.583"/>
	</defs>
	<clipPath id="SVGID_10_">
		<use xlink:href="#SVGID_9_"  overflow="visible"/>
	</clipPath>
	<g clip-path="url(#SVGID_10_)">
		<text transform="matrix(1 0 0 1 222.7358 87.7412)"><tspan x="0" y="0" fill="#5A5A5A" font-family="'HelveticaNeue'" font-size="16.0243">A</tspan><tspan x="10.672" y="0" fill="#5A5A5A" font-family="'HelveticaNeue'" font-size="16.0243">b</tspan><tspan x="19.582" y="0" fill="#5A5A5A" font-family="'HelveticaNeue'" font-size="16.0243">ili</tspan><tspan x="30.252" y="0" fill="#5A5A5A" font-family="'HelveticaNeue'" font-size="16.0243">t</tspan><tspan x="35.588" y="0" fill="#5A5A5A" font-family="'HelveticaNeue'" font-size="16.0243">y</tspan></text>
	</g>
</g>
<g>
	<defs>
		<rect id="SVGID_11_" x="-76.182" y="-6.175" width="640.971" height="384.583"/>
	</defs>
	<clipPath id="SVGID_12_">
		<use xlink:href="#SVGID_11_"  overflow="visible"/>
	</clipPath>
	<g clip-path="url(#SVGID_12_)">
		<text transform="matrix(1 0 0 1 339.3984 132.23)"><tspan x="0" y="0" fill="#5A5A5A" font-family="'HelveticaNeue'" font-size="16.0243">H</tspan><tspan x="10.688" y="0" fill="#5A5A5A" font-family="'HelveticaNeue'" font-size="16.0243">a</tspan><tspan x="19.581" y="0" fill="#5A5A5A" font-family="'HelveticaNeue'" font-size="16.0243">n</tspan><tspan x="28.49" y="0" fill="#5A5A5A" font-family="'HelveticaNeue'" font-size="16.0243">d</tspan><tspan x="37.4" y="0" fill="#5A5A5A" font-family="'HelveticaNeue'" font-size="16.0243">lin</tspan><tspan x="53.424" y="0" fill="#5A5A5A" font-family="'HelveticaNeue'" font-size="16.0243">g</tspan><tspan x="62.333" y="0" fill="#5A5A5A" font-family="'HelveticaNeue'" font-size="16.0243"> </tspan><tspan x="67.669" y="0" fill="#5A5A5A" font-family="'HelveticaNeue'" font-size="16.0243">o</tspan><tspan x="76.578" y="0" fill="#5A5A5A" font-family="'HelveticaNeue'" font-size="16.0243">f</tspan><tspan x="81.914" y="0" fill="#5A5A5A" font-family="'HelveticaNeue'" font-size="16.0243"> </tspan></text>
	</g>
</g>
<g>
	<defs>
		<rect id="SVGID_13_" x="-76.182" y="-6.175" width="640.971" height="384.583"/>
	</defs>
	<clipPath id="SVGID_14_">
		<use xlink:href="#SVGID_13_"  overflow="visible"/>
	</clipPath>
	<g clip-path="url(#SVGID_14_)">
		<text transform="matrix(1 0 0 1 346.5186 151.8149)"><tspan x="0" y="0" fill="#5A5A5A" font-family="'HelveticaNeue'" font-size="16.0243">Ec</tspan><tspan x="18.973" y="0" fill="#5A5A5A" font-family="'HelveticaNeue'" font-size="16.0243">o</tspan><tspan x="27.882" y="0" fill="#5A5A5A" font-family="'HelveticaNeue'" font-size="16.0243">n</tspan><tspan x="36.791" y="0" fill="#5A5A5A" font-family="'HelveticaNeue'" font-size="16.0243">o</tspan><tspan x="45.7" y="0" fill="#5A5A5A" font-family="'HelveticaNeue'" font-size="16.0243">m</tspan><tspan x="59.93" y="0" fill="#5A5A5A" font-family="'HelveticaNeue'" font-size="16.0243">y</tspan></text>
	</g>
</g>
<g>
	<defs>
		<rect id="SVGID_15_" x="-76.182" y="-6.175" width="640.971" height="384.583"/>
	</defs>
	<clipPath id="SVGID_16_">
		<use xlink:href="#SVGID_15_"  overflow="visible"/>
	</clipPath>
	<g clip-path="url(#SVGID_16_)">
		<text transform="matrix(1 0 0 1 389.9229 233.251)"><tspan x="0" y="0" fill="#5A5A5A" font-family="'HelveticaNeue'" font-size="16.0243">D</tspan><tspan x="10.688" y="0" fill="#5A5A5A" font-family="'HelveticaNeue'" font-size="16.0243">o</tspan><tspan x="19.598" y="0" fill="#5A5A5A" font-family="'HelveticaNeue'" font-size="16.0243">m</tspan><tspan x="33.827" y="0" fill="#5A5A5A" font-family="'HelveticaNeue'" font-size="16.0243">e</tspan><tspan x="42.721" y="0" fill="#5A5A5A" font-family="'HelveticaNeue'" font-size="16.0243">s</tspan><tspan x="51.613" y="0" fill="#5A5A5A" font-family="'HelveticaNeue'" font-size="16.0243">t</tspan><tspan x="56.949" y="0" fill="#5A5A5A" font-family="'HelveticaNeue'" font-size="16.0243">i</tspan><tspan x="60.507" y="0" fill="#5A5A5A" font-family="'HelveticaNeue'" font-size="16.0243">c</tspan><tspan x="69.4" y="0" fill="#5A5A5A" font-family="'HelveticaNeue'" font-size="16.0243"> </tspan></text>
	</g>
</g>
<g>
	<defs>
		<rect id="SVGID_17_" x="-76.182" y="-6.175" width="640.971" height="384.583"/>
	</defs>
	<clipPath id="SVGID_18_">
		<use xlink:href="#SVGID_17_"  overflow="visible"/>
	</clipPath>
	<g clip-path="url(#SVGID_18_)">
		<text transform="matrix(1 0 0 1 359.6562 252.8359)"><tspan x="0" y="0" fill="#5A5A5A" font-family="'HelveticaNeue'" font-size="16.0243">Acc</tspan><tspan x="28.459" y="0" fill="#5A5A5A" font-family="'HelveticaNeue'" font-size="16.0243">o</tspan><tspan x="37.368" y="0" fill="#5A5A5A" font-family="'HelveticaNeue'" font-size="16.0243">m</tspan><tspan x="51.598" y="0" fill="#5A5A5A" font-family="'HelveticaNeue'" font-size="16.0243">p</tspan><tspan x="60.507" y="0" fill="#5A5A5A" font-family="'HelveticaNeue'" font-size="16.0243">li</tspan><tspan x="67.621" y="0" fill="#5A5A5A" font-family="'HelveticaNeue'" font-size="16.0243">s</tspan><tspan x="76.515" y="0" fill="#5A5A5A" font-family="'HelveticaNeue'" font-size="16.0243">h</tspan><tspan x="85.424" y="0" fill="#5A5A5A" font-family="'HelveticaNeue'" font-size="16.0243">m</tspan><tspan x="99.653" y="0" fill="#5A5A5A" font-family="'HelveticaNeue'" font-size="16.0243">e</tspan><tspan x="108.547" y="0" fill="#5A5A5A" font-family="'HelveticaNeue'" font-size="16.0243">n</tspan><tspan x="117.456" y="0" fill="#5A5A5A" font-family="'HelveticaNeue'" font-size="16.0243">t</tspan><tspan x="122.792" y="0" fill="#5A5A5A" font-family="'HelveticaNeue'" font-size="16.0243">s</tspan></text>
	</g>
</g>
<g>
	<defs>
		<rect id="SVGID_19_" x="-76.182" y="-6.175" width="640.971" height="384.583"/>
	</defs>
	<clipPath id="SVGID_20_">
		<use xlink:href="#SVGID_19_"  overflow="visible"/>
	</clipPath>
	<g clip-path="url(#SVGID_20_)">
		<text transform="matrix(1 0 0 1 296.3477 323.8115)"><tspan x="0" y="0" fill="#5A5A5A" font-family="'HelveticaNeue'" font-size="16.0243">I</tspan><tspan x="3.573" y="0" fill="#5A5A5A" font-family="'HelveticaNeue'" font-size="16.0243">n</tspan><tspan x="12.482" y="0" fill="#5A5A5A" font-family="'HelveticaNeue'" font-size="16.0243">te</tspan><tspan x="26.712" y="0" fill="#5A5A5A" font-family="'HelveticaNeue'" font-size="16.0243">g</tspan><tspan x="35.621" y="0" fill="#5A5A5A" font-family="'HelveticaNeue'" font-size="16.0243">ri</tspan><tspan x="44.515" y="0" fill="#5A5A5A" font-family="'HelveticaNeue'" font-size="16.0243">t</tspan><tspan x="49.851" y="0" fill="#5A5A5A" font-family="'HelveticaNeue'" font-size="16.0243">y</tspan></text>
	</g>
</g>
<g>
	<defs>
		<rect id="SVGID_21_" x="-76.182" y="-6.175" width="640.971" height="384.583"/>
	</defs>
	<clipPath id="SVGID_22_">
		<use xlink:href="#SVGID_21_"  overflow="visible"/>
	</clipPath>
	<g clip-path="url(#SVGID_22_)">
		<text transform="matrix(1 0 0 1 92.0093 323.8115)"><tspan x="0" y="0" fill="#5A5A5A" font-family="'HelveticaNeue'" font-size="16.0243">Fo</tspan><tspan x="17.819" y="0" fill="#5A5A5A" font-family="'HelveticaNeue'" font-size="16.0243">r</tspan><tspan x="23.155" y="0" fill="#5A5A5A" font-family="'HelveticaNeue'" font-size="16.0243">e</tspan><tspan x="32.048" y="0" fill="#5A5A5A" font-family="'HelveticaNeue'" font-size="16.0243">i</tspan><tspan x="35.605" y="0" fill="#5A5A5A" font-family="'HelveticaNeue'" font-size="16.0243">g</tspan><tspan x="44.514" y="0" fill="#5A5A5A" font-family="'HelveticaNeue'" font-size="16.0243">n</tspan><tspan x="53.424" y="0" fill="#5A5A5A" font-family="'HelveticaNeue'" font-size="16.0243"> </tspan><tspan x="58.76" y="0" fill="#5A5A5A" font-family="'HelveticaNeue'" font-size="16.0243">P</tspan><tspan x="68.551" y="0" fill="#5A5A5A" font-family="'HelveticaNeue'" font-size="16.0243">o</tspan><tspan x="77.46" y="0" fill="#5A5A5A" font-family="'HelveticaNeue'" font-size="16.0243">li</tspan><tspan x="84.574" y="0" fill="#5A5A5A" font-family="'HelveticaNeue'" font-size="16.0243">c</tspan><tspan x="93.468" y="0" fill="#5A5A5A" font-family="'HelveticaNeue'" font-size="16.0243">y</tspan></text>
	</g>
</g>
<g>
	<defs>
		<rect id="SVGID_23_" x="-76.182" y="-6.175" width="640.971" height="384.583"/>
	</defs>
	<clipPath id="SVGID_24_">
		<use xlink:href="#SVGID_23_"  overflow="visible"/>
	</clipPath>
	<g clip-path="url(#SVGID_24_)">
		<text transform="matrix(1 0 0 1 2.4556 242.8057)"><tspan x="0" y="0" fill="#5A5A5A" font-family="'HelveticaNeue'" font-size="16.0243">L</tspan><tspan x="8.91" y="0" fill="#5A5A5A" font-family="'HelveticaNeue'" font-size="16.0243">ea</tspan><tspan x="26.696" y="0" fill="#5A5A5A" font-family="'HelveticaNeue'" font-size="16.0243">d</tspan><tspan x="35.605" y="0" fill="#5A5A5A" font-family="'HelveticaNeue'" font-size="16.0243">e</tspan><tspan x="44.499" y="0" fill="#5A5A5A" font-family="'HelveticaNeue'" font-size="16.0243">r</tspan><tspan x="49.834" y="0" fill="#5A5A5A" font-family="'HelveticaNeue'" font-size="16.0243">s</tspan><tspan x="58.728" y="0" fill="#5A5A5A" font-family="'HelveticaNeue'" font-size="16.0243">hi</tspan><tspan x="71.195" y="0" fill="#5A5A5A" font-family="'HelveticaNeue'" font-size="16.0243">p</tspan><tspan x="80.104" y="0" fill="#5A5A5A" font-family="'HelveticaNeue'" font-size="16.0243"> </tspan><tspan x="83.677" y="0" fill="#5A5A5A" font-family="'HelveticaNeue'" font-size="16.0243">A</tspan><tspan x="94.35" y="0" fill="#5A5A5A" font-family="'HelveticaNeue'" font-size="16.0243">b</tspan><tspan x="103.259" y="0" fill="#5A5A5A" font-family="'HelveticaNeue'" font-size="16.0243">ili</tspan><tspan x="113.93" y="0" fill="#5A5A5A" font-family="'HelveticaNeue'" font-size="16.0243">t</tspan><tspan x="119.266" y="0" fill="#5A5A5A" font-family="'HelveticaNeue'" font-size="16.0243">y</tspan></text>
	</g>
</g>
<g>
	<defs>
		<rect id="SVGID_25_" x="-76.182" y="-6.175" width="640.971" height="384.583"/>
	</defs>
	<clipPath id="SVGID_26_">
		<use xlink:href="#SVGID_25_"  overflow="visible"/>
	</clipPath>
	<g clip-path="url(#SVGID_26_)">
		<text transform="matrix(1 0 0 1 70.9121 141.7847)"><tspan x="0" y="0" fill="#5A5A5A" font-family="'HelveticaNeue'" font-size="16.0243">I</tspan><tspan x="3.573" y="0" fill="#5A5A5A" font-family="'HelveticaNeue'" font-size="16.0243">n</tspan><tspan x="12.483" y="0" fill="#5A5A5A" font-family="'HelveticaNeue'" font-size="16.0243">te</tspan><tspan x="26.712" y="0" fill="#5A5A5A" font-family="'HelveticaNeue'" font-size="16.0243">lli</tspan><tspan x="37.383" y="0" fill="#5A5A5A" font-family="'HelveticaNeue'" font-size="16.0243">g</tspan><tspan x="46.292" y="0" fill="#5A5A5A" font-family="'HelveticaNeue'" font-size="16.0243">e</tspan><tspan x="55.186" y="0" fill="#5A5A5A" font-family="'HelveticaNeue'" font-size="16.0243">n</tspan><tspan x="64.095" y="0" fill="#5A5A5A" font-family="'HelveticaNeue'" font-size="16.0243">c</tspan><tspan x="72.989" y="0" fill="#5A5A5A" font-family="'HelveticaNeue'" font-size="16.0243">e</tspan></text>
	</g>
</g>
<g>
	<defs>
		<rect id="SVGID_27_" x="-76.182" y="-6.175" width="640.971" height="384.583"/>
	</defs>
	<clipPath id="SVGID_28_">
		<use xlink:href="#SVGID_27_"  overflow="visible"/>
	</clipPath>
	<rect x="89.402" y="20.532" clip-path="url(#SVGID_28_)" fill="#9A79AF" width="8.903" height="8.903"/>
</g>
<g>
	<defs>
		<rect id="SVGID_29_" x="-76.182" y="-6.175" width="640.971" height="384.583"/>
	</defs>
	<clipPath id="SVGID_30_">
		<use xlink:href="#SVGID_29_"  overflow="visible"/>
	</clipPath>
	<g clip-path="url(#SVGID_30_)">
		<text transform="matrix(1 0 0 1 101.019 31.2827)"><tspan x="0" y="0" fill="#5A5A5A" font-family="'HelveticaNeue'" font-size="16.0243">F</tspan><tspan x="8.909" y="0" fill="#5A5A5A" font-family="'HelveticaNeue'" font-size="16.0243">r</tspan><tspan x="14.245" y="0" fill="#5A5A5A" font-family="'HelveticaNeue'" font-size="16.0243">a</tspan><tspan x="23.139" y="0" fill="#5A5A5A" font-family="'HelveticaNeue'" font-size="16.0243">n</tspan><tspan x="32.048" y="0" fill="#5A5A5A" font-family="'HelveticaNeue'" font-size="16.0243">k</tspan><tspan x="40.941" y="0" fill="#5A5A5A" font-family="'HelveticaNeue'" font-size="16.0243">lin</tspan><tspan x="56.965" y="0" fill="#5A5A5A" font-family="'HelveticaNeue'" font-size="16.0243"> </tspan><tspan x="60.539" y="0" fill="#5A5A5A" font-family="'HelveticaNeue'" font-size="16.0243">D</tspan><tspan x="71.227" y="0" fill="#5A5A5A" font-family="'HelveticaNeue'" font-size="16.0243">. </tspan><tspan x="81.899" y="0" fill="#5A5A5A" font-family="'HelveticaNeue'" font-size="16.0243">Roo</tspan><tspan x="110.406" y="0" fill="#5A5A5A" font-family="'HelveticaNeue'" font-size="16.0243">s</tspan><tspan x="119.299" y="0" fill="#5A5A5A" font-family="'HelveticaNeue'" font-size="16.0243">e</tspan><tspan x="128.192" y="0" fill="#5A5A5A" font-family="'HelveticaNeue'" font-size="16.0243">v</tspan><tspan x="137.086" y="0" fill="#5A5A5A" font-family="'HelveticaNeue'" font-size="16.0243">e</tspan><tspan x="145.979" y="0" fill="#5A5A5A" font-family="'HelveticaNeue'" font-size="16.0243">lt</tspan></text>
	</g>
</g>
<g>
	<defs>
		<rect id="SVGID_31_" x="-76.182" y="-6.175" width="640.971" height="384.583"/>
	</defs>
	<clipPath id="SVGID_32_">
		<use xlink:href="#SVGID_31_"  overflow="visible"/>
	</clipPath>
	<rect x="278.134" y="20.532" clip-path="url(#SVGID_32_)" fill="#7FBF7B" width="8.902" height="8.903"/>
</g>
<g>
	<defs>
		<rect id="SVGID_33_" x="-76.182" y="-6.175" width="640.971" height="384.583"/>
	</defs>
	<clipPath id="SVGID_34_">
		<use xlink:href="#SVGID_33_"  overflow="visible"/>
	</clipPath>
	<g clip-path="url(#SVGID_34_)">
		<text transform="matrix(1 0 0 1 290.3311 31.2827)"><tspan x="0" y="0" fill="#5A5A5A" font-family="'HelveticaNeue'" font-size="16.0243">Ge</tspan><tspan x="21.344" y="0" fill="#5A5A5A" font-family="'HelveticaNeue'" font-size="16.0243">o</tspan><tspan x="30.253" y="0" fill="#5A5A5A" font-family="'HelveticaNeue'" font-size="16.0243">r</tspan><tspan x="35.589" y="0" fill="#5A5A5A" font-family="'HelveticaNeue'" font-size="16.0243">g</tspan><tspan x="44.499" y="0" fill="#5A5A5A" font-family="'HelveticaNeue'" font-size="16.0243">e</tspan><tspan x="53.392" y="0" fill="#5A5A5A" font-family="'HelveticaNeue'" font-size="16.0243"> </tspan><tspan x="56.949" y="0" fill="#5A5A5A" font-family="'HelveticaNeue'" font-size="16.0243">W</tspan><tspan x="71.194" y="0" fill="#5A5A5A" font-family="'HelveticaNeue'" font-size="16.0243">. </tspan><tspan x="81.867" y="0" fill="#5A5A5A" font-family="'HelveticaNeue'" font-size="16.0243">B</tspan><tspan x="92.555" y="0" fill="#5A5A5A" font-family="'HelveticaNeue'" font-size="16.0243">u</tspan><tspan x="101.465" y="0" fill="#5A5A5A" font-family="'HelveticaNeue'" font-size="16.0243">s</tspan><tspan x="110.358" y="0" fill="#5A5A5A" font-family="'HelveticaNeue'" font-size="16.0243">h</tspan></text>
	</g>
</g>
</svg>
