<?xml version="1.0" encoding="utf-8"?>
<!-- Generator: Adobe Illustrator 16.0.4, SVG Export Plug-In . SVG Version: 6.00 Build 0)  -->
<!DOCTYPE svg PUBLIC "-//W3C//DTD SVG 1.1//EN" "http://www.w3.org/Graphics/SVG/1.1/DTD/svg11.dtd">
<svg version="1.1" id="Layer_1" xmlns="http://www.w3.org/2000/svg" xmlns:xlink="http://www.w3.org/1999/xlink" x="0px" y="0px"
	 width="500px" height="386.363px" viewBox="0 0 500 386.363" enable-background="new 0 0 500 386.363" xml:space="preserve">
<g>
	<defs>
		<rect id="SVGID_1_" x="-78.172" y="-1.978" width="647.534" height="388.521"/>
	</defs>
	<clipPath id="SVGID_2_">
		<use xlink:href="#SVGID_1_"  overflow="visible"/>
	</clipPath>
	<path clip-path="url(#SVGID_2_)" fill="none" stroke="#D9D9D8" stroke-linejoin="round" stroke-miterlimit="10" d="
		M156.559,144.617l89.936-44.968 M133.176,241.746l23.383-97.129 M196.131,320.891l-62.955-79.145 M296.858,320.891H196.131
		 M359.813,241.746l-62.955,79.145 M336.43,144.617l23.384,97.129 M246.495,99.649l89.935,44.968 M174.546,159.007l71.949-35.974
		 M156.559,236.352l17.987-77.345 M206.923,299.305l-50.364-62.953 M286.066,299.305h-79.144 M336.43,236.352l-50.363,62.953
		 M318.442,159.007l17.987,77.345 M246.495,123.033l71.947,35.974 M192.533,173.396l53.962-26.98 M178.144,232.754l14.39-59.357
		 M215.917,279.52l-37.773-46.766 M277.072,279.52h-61.155 M314.846,232.754l-37.773,46.766 M300.456,173.396l14.39,59.357
		 M246.495,146.416l53.961,26.98 M210.521,187.786l35.975-17.987 M201.527,227.357l8.994-39.571 M226.709,257.936l-25.182-30.578
		 M266.28,257.936h-39.571 M291.462,227.357l-25.182,30.578 M282.469,187.786l8.993,39.571 M246.495,169.799l35.974,17.987
		 M228.508,202.176l17.987-8.993 M223.111,221.961l5.396-19.785 M235.702,238.148l-12.591-16.188 M257.287,238.148h-21.585
		 M269.878,221.961l-12.591,16.188 M264.481,202.176l5.396,19.785 M246.495,193.183l17.986,8.993"/>
</g>
<g>
	<defs>
		<rect id="SVGID_3_" x="128.679" y="98.75" width="233.832" height="233.832"/>
	</defs>
	<clipPath id="SVGID_4_">
		<use xlink:href="#SVGID_3_"  overflow="visible"/>
	</clipPath>
	<polygon clip-path="url(#SVGID_4_)" fill="#41857C" points="245.596,114.938 294.16,179.692 304.952,230.055 267.18,258.834 
		211.42,289.412 153.861,237.25 229.407,203.074 	"/>
</g>
<g>
	<defs>
		<rect id="SVGID_5_" x="128.679" y="98.75" width="233.832" height="233.832"/>
	</defs>
	<clipPath id="SVGID_6_">
		<use xlink:href="#SVGID_5_"  overflow="visible"/>
	</clipPath>
	<polygon opacity="0.9" clip-path="url(#SVGID_6_)" fill="#D8B365" points="245.596,170.698 254.589,210.27 285.167,224.658 
		288.765,303.803 229.407,251.639 224.011,221.062 182.641,165.302 	"/>
</g>
<g>
	<defs>
		<rect id="SVGID_7_" x="-78.172" y="-1.978" width="647.534" height="388.521"/>
	</defs>
	<clipPath id="SVGID_8_">
		<use xlink:href="#SVGID_7_"  overflow="visible"/>
	</clipPath>
	<g clip-path="url(#SVGID_8_)">
		<text transform="matrix(1 0 0 1 189.3042 73.4438)"><tspan x="0" y="0" fill="#5A5A5A" font-family="'HelveticaNeue'" font-size="16.1884">C</tspan><tspan x="10.797" y="0" fill="#5A5A5A" font-family="'HelveticaNeue'" font-size="16.1884">o</tspan><tspan x="19.798" y="0" fill="#5A5A5A" font-family="'HelveticaNeue'" font-size="16.1884">mm</tspan><tspan x="48.549" y="0" fill="#5A5A5A" font-family="'HelveticaNeue'" font-size="16.1884">uni</tspan><tspan x="70.144" y="0" fill="#5A5A5A" font-family="'HelveticaNeue'" font-size="16.1884">cat</tspan><tspan x="93.503" y="0" fill="#5A5A5A" font-family="'HelveticaNeue'" font-size="16.1884">i</tspan><tspan x="97.096" y="0" fill="#5A5A5A" font-family="'HelveticaNeue'" font-size="16.1884">o</tspan><tspan x="106.097" y="0" fill="#5A5A5A" font-family="'HelveticaNeue'" font-size="16.1884">n </tspan></text>
	</g>
</g>
<g>
	<defs>
		<rect id="SVGID_9_" x="-78.172" y="-1.978" width="647.534" height="388.521"/>
	</defs>
	<clipPath id="SVGID_10_">
		<use xlink:href="#SVGID_9_"  overflow="visible"/>
	</clipPath>
	<g clip-path="url(#SVGID_10_)">
		<text transform="matrix(1 0 0 1 223.4795 93.2295)"><tspan x="0" y="0" fill="#5A5A5A" font-family="'HelveticaNeue'" font-size="16.1884">A</tspan><tspan x="10.781" y="0" fill="#5A5A5A" font-family="'HelveticaNeue'" font-size="16.1884">b</tspan><tspan x="19.782" y="0" fill="#5A5A5A" font-family="'HelveticaNeue'" font-size="16.1884">ili</tspan><tspan x="30.562" y="0" fill="#5A5A5A" font-family="'HelveticaNeue'" font-size="16.1884">t</tspan><tspan x="35.953" y="0" fill="#5A5A5A" font-family="'HelveticaNeue'" font-size="16.1884">y</tspan></text>
	</g>
</g>
<g>
	<defs>
		<rect id="SVGID_11_" x="-78.172" y="-1.978" width="647.534" height="388.521"/>
	</defs>
	<clipPath id="SVGID_12_">
		<use xlink:href="#SVGID_11_"  overflow="visible"/>
	</clipPath>
	<g clip-path="url(#SVGID_12_)">
		<text transform="matrix(1 0 0 1 341.3359 138.1709)"><tspan x="0" y="0" fill="#5A5A5A" font-family="'HelveticaNeue'" font-size="16.1884">H</tspan><tspan x="10.798" y="0" fill="#5A5A5A" font-family="'HelveticaNeue'" font-size="16.1884">a</tspan><tspan x="19.781" y="0" fill="#5A5A5A" font-family="'HelveticaNeue'" font-size="16.1884">n</tspan><tspan x="28.782" y="0" fill="#5A5A5A" font-family="'HelveticaNeue'" font-size="16.1884">d</tspan><tspan x="37.783" y="0" fill="#5A5A5A" font-family="'HelveticaNeue'" font-size="16.1884">lin</tspan><tspan x="53.971" y="0" fill="#5A5A5A" font-family="'HelveticaNeue'" font-size="16.1884">g</tspan><tspan x="62.972" y="0" fill="#5A5A5A" font-family="'HelveticaNeue'" font-size="16.1884"> </tspan><tspan x="68.362" y="0" fill="#5A5A5A" font-family="'HelveticaNeue'" font-size="16.1884">o</tspan><tspan x="77.362" y="0" fill="#5A5A5A" font-family="'HelveticaNeue'" font-size="16.1884">f</tspan><tspan x="82.753" y="0" fill="#5A5A5A" font-family="'HelveticaNeue'" font-size="16.1884"> </tspan></text>
	</g>
</g>
<g>
	<defs>
		<rect id="SVGID_13_" x="-78.172" y="-1.978" width="647.534" height="388.521"/>
	</defs>
	<clipPath id="SVGID_14_">
		<use xlink:href="#SVGID_13_"  overflow="visible"/>
	</clipPath>
	<g clip-path="url(#SVGID_14_)">
		<text transform="matrix(1 0 0 1 348.5312 157.9565)"><tspan x="0" y="0" fill="#5A5A5A" font-family="'HelveticaNeue'" font-size="16.1884">Ec</tspan><tspan x="19.167" y="0" fill="#5A5A5A" font-family="'HelveticaNeue'" font-size="16.1884">o</tspan><tspan x="28.167" y="0" fill="#5A5A5A" font-family="'HelveticaNeue'" font-size="16.1884">n</tspan><tspan x="37.168" y="0" fill="#5A5A5A" font-family="'HelveticaNeue'" font-size="16.1884">o</tspan><tspan x="46.169" y="0" fill="#5A5A5A" font-family="'HelveticaNeue'" font-size="16.1884">m</tspan><tspan x="60.544" y="0" fill="#5A5A5A" font-family="'HelveticaNeue'" font-size="16.1884">y</tspan></text>
	</g>
</g>
<g>
	<defs>
		<rect id="SVGID_15_" x="-78.172" y="-1.978" width="647.534" height="388.521"/>
	</defs>
	<clipPath id="SVGID_16_">
		<use xlink:href="#SVGID_15_"  overflow="visible"/>
	</clipPath>
	<g clip-path="url(#SVGID_16_)">
		<text transform="matrix(1 0 0 1 392.3789 240.2266)"><tspan x="0" y="0" fill="#5A5A5A" font-family="'HelveticaNeue'" font-size="16.1884">D</tspan><tspan x="10.798" y="0" fill="#5A5A5A" font-family="'HelveticaNeue'" font-size="16.1884">o</tspan><tspan x="19.798" y="0" fill="#5A5A5A" font-family="'HelveticaNeue'" font-size="16.1884">m</tspan><tspan x="34.173" y="0" fill="#5A5A5A" font-family="'HelveticaNeue'" font-size="16.1884">e</tspan><tspan x="43.157" y="0" fill="#5A5A5A" font-family="'HelveticaNeue'" font-size="16.1884">s</tspan><tspan x="52.143" y="0" fill="#5A5A5A" font-family="'HelveticaNeue'" font-size="16.1884">t</tspan><tspan x="57.532" y="0" fill="#5A5A5A" font-family="'HelveticaNeue'" font-size="16.1884">i</tspan><tspan x="61.126" y="0" fill="#5A5A5A" font-family="'HelveticaNeue'" font-size="16.1884">c</tspan><tspan x="70.11" y="0" fill="#5A5A5A" font-family="'HelveticaNeue'" font-size="16.1884"> </tspan></text>
	</g>
</g>
<g>
	<defs>
		<rect id="SVGID_17_" x="-78.172" y="-1.978" width="647.534" height="388.521"/>
	</defs>
	<clipPath id="SVGID_18_">
		<use xlink:href="#SVGID_17_"  overflow="visible"/>
	</clipPath>
	<g clip-path="url(#SVGID_18_)">
		<text transform="matrix(1 0 0 1 361.8008 260.0127)"><tspan x="0" y="0" fill="#5A5A5A" font-family="'HelveticaNeue'" font-size="16.1884">Acc</tspan><tspan x="28.75" y="0" fill="#5A5A5A" font-family="'HelveticaNeue'" font-size="16.1884">o</tspan><tspan x="37.751" y="0" fill="#5A5A5A" font-family="'HelveticaNeue'" font-size="16.1884">m</tspan><tspan x="52.126" y="0" fill="#5A5A5A" font-family="'HelveticaNeue'" font-size="16.1884">p</tspan><tspan x="61.126" y="0" fill="#5A5A5A" font-family="'HelveticaNeue'" font-size="16.1884">li</tspan><tspan x="68.313" y="0" fill="#5A5A5A" font-family="'HelveticaNeue'" font-size="16.1884">s</tspan><tspan x="77.298" y="0" fill="#5A5A5A" font-family="'HelveticaNeue'" font-size="16.1884">h</tspan><tspan x="86.299" y="0" fill="#5A5A5A" font-family="'HelveticaNeue'" font-size="16.1884">m</tspan><tspan x="100.674" y="0" fill="#5A5A5A" font-family="'HelveticaNeue'" font-size="16.1884">e</tspan><tspan x="109.658" y="0" fill="#5A5A5A" font-family="'HelveticaNeue'" font-size="16.1884">n</tspan><tspan x="118.659" y="0" fill="#5A5A5A" font-family="'HelveticaNeue'" font-size="16.1884">t</tspan><tspan x="124.05" y="0" fill="#5A5A5A" font-family="'HelveticaNeue'" font-size="16.1884">s</tspan></text>
	</g>
</g>
<g>
	<defs>
		<rect id="SVGID_19_" x="-78.172" y="-1.978" width="647.534" height="388.521"/>
	</defs>
	<clipPath id="SVGID_20_">
		<use xlink:href="#SVGID_19_"  overflow="visible"/>
	</clipPath>
	<g clip-path="url(#SVGID_20_)">
		<text transform="matrix(1 0 0 1 297.8428 331.7158)"><tspan x="0" y="0" fill="#5A5A5A" font-family="'HelveticaNeue'" font-size="16.1884">I</tspan><tspan x="3.609" y="0" fill="#5A5A5A" font-family="'HelveticaNeue'" font-size="16.1884">n</tspan><tspan x="12.61" y="0" fill="#5A5A5A" font-family="'HelveticaNeue'" font-size="16.1884">te</tspan><tspan x="26.985" y="0" fill="#5A5A5A" font-family="'HelveticaNeue'" font-size="16.1884">g</tspan><tspan x="35.986" y="0" fill="#5A5A5A" font-family="'HelveticaNeue'" font-size="16.1884">ri</tspan><tspan x="44.97" y="0" fill="#5A5A5A" font-family="'HelveticaNeue'" font-size="16.1884">t</tspan><tspan x="50.36" y="0" fill="#5A5A5A" font-family="'HelveticaNeue'" font-size="16.1884">y</tspan></text>
	</g>
</g>
<g>
	<defs>
		<rect id="SVGID_21_" x="-78.172" y="-1.978" width="647.534" height="388.521"/>
	</defs>
	<clipPath id="SVGID_22_">
		<use xlink:href="#SVGID_21_"  overflow="visible"/>
	</clipPath>
	<g clip-path="url(#SVGID_22_)">
		<text transform="matrix(1 0 0 1 91.4136 331.7158)"><tspan x="0" y="0" fill="#5A5A5A" font-family="'HelveticaNeue'" font-size="16.1884">Fo</tspan><tspan x="18.001" y="0" fill="#5A5A5A" font-family="'HelveticaNeue'" font-size="16.1884">r</tspan><tspan x="23.392" y="0" fill="#5A5A5A" font-family="'HelveticaNeue'" font-size="16.1884">e</tspan><tspan x="32.376" y="0" fill="#5A5A5A" font-family="'HelveticaNeue'" font-size="16.1884">i</tspan><tspan x="35.97" y="0" fill="#5A5A5A" font-family="'HelveticaNeue'" font-size="16.1884">g</tspan><tspan x="44.97" y="0" fill="#5A5A5A" font-family="'HelveticaNeue'" font-size="16.1884">n</tspan><tspan x="53.971" y="0" fill="#5A5A5A" font-family="'HelveticaNeue'" font-size="16.1884"> </tspan><tspan x="59.362" y="0" fill="#5A5A5A" font-family="'HelveticaNeue'" font-size="16.1884">P</tspan><tspan x="69.252" y="0" fill="#5A5A5A" font-family="'HelveticaNeue'" font-size="16.1884">o</tspan><tspan x="78.253" y="0" fill="#5A5A5A" font-family="'HelveticaNeue'" font-size="16.1884">li</tspan><tspan x="85.44" y="0" fill="#5A5A5A" font-family="'HelveticaNeue'" font-size="16.1884">c</tspan><tspan x="94.425" y="0" fill="#5A5A5A" font-family="'HelveticaNeue'" font-size="16.1884">y</tspan></text>
	</g>
</g>
<g>
	<defs>
		<rect id="SVGID_23_" x="-78.172" y="-1.978" width="647.534" height="388.521"/>
	</defs>
	<clipPath id="SVGID_24_">
		<use xlink:href="#SVGID_23_"  overflow="visible"/>
	</clipPath>
	<g clip-path="url(#SVGID_24_)">
		<text transform="matrix(1 0 0 1 0.9434 249.8809)"><tspan x="0" y="0" fill="#5A5A5A" font-family="'HelveticaNeue'" font-size="16.1884">L</tspan><tspan x="9" y="0" fill="#5A5A5A" font-family="'HelveticaNeue'" font-size="16.1884">ea</tspan><tspan x="26.969" y="0" fill="#5A5A5A" font-family="'HelveticaNeue'" font-size="16.1884">d</tspan><tspan x="35.97" y="0" fill="#5A5A5A" font-family="'HelveticaNeue'" font-size="16.1884">e</tspan><tspan x="44.954" y="0" fill="#5A5A5A" font-family="'HelveticaNeue'" font-size="16.1884">r</tspan><tspan x="50.345" y="0" fill="#5A5A5A" font-family="'HelveticaNeue'" font-size="16.1884">s</tspan><tspan x="59.329" y="0" fill="#5A5A5A" font-family="'HelveticaNeue'" font-size="16.1884">hi</tspan><tspan x="71.924" y="0" fill="#5A5A5A" font-family="'HelveticaNeue'" font-size="16.1884">p</tspan><tspan x="80.924" y="0" fill="#5A5A5A" font-family="'HelveticaNeue'" font-size="16.1884"> </tspan><tspan x="84.534" y="0" fill="#5A5A5A" font-family="'HelveticaNeue'" font-size="16.1884">A</tspan><tspan x="95.315" y="0" fill="#5A5A5A" font-family="'HelveticaNeue'" font-size="16.1884">b</tspan><tspan x="104.316" y="0" fill="#5A5A5A" font-family="'HelveticaNeue'" font-size="16.1884">ili</tspan><tspan x="115.097" y="0" fill="#5A5A5A" font-family="'HelveticaNeue'" font-size="16.1884">t</tspan><tspan x="120.487" y="0" fill="#5A5A5A" font-family="'HelveticaNeue'" font-size="16.1884">y</tspan></text>
	</g>
</g>
<g>
	<defs>
		<rect id="SVGID_25_" x="-78.172" y="-1.978" width="647.534" height="388.521"/>
	</defs>
	<clipPath id="SVGID_26_">
		<use xlink:href="#SVGID_25_"  overflow="visible"/>
	</clipPath>
	<g clip-path="url(#SVGID_26_)">
		<text transform="matrix(1 0 0 1 70.0986 147.8267)"><tspan x="0" y="0" fill="#5A5A5A" font-family="'HelveticaNeue'" font-size="16.1884">I</tspan><tspan x="3.61" y="0" fill="#5A5A5A" font-family="'HelveticaNeue'" font-size="16.1884">n</tspan><tspan x="12.61" y="0" fill="#5A5A5A" font-family="'HelveticaNeue'" font-size="16.1884">te</tspan><tspan x="26.985" y="0" fill="#5A5A5A" font-family="'HelveticaNeue'" font-size="16.1884">lli</tspan><tspan x="37.766" y="0" fill="#5A5A5A" font-family="'HelveticaNeue'" font-size="16.1884">g</tspan><tspan x="46.767" y="0" fill="#5A5A5A" font-family="'HelveticaNeue'" font-size="16.1884">e</tspan><tspan x="55.751" y="0" fill="#5A5A5A" font-family="'HelveticaNeue'" font-size="16.1884">n</tspan><tspan x="64.751" y="0" fill="#5A5A5A" font-family="'HelveticaNeue'" font-size="16.1884">c</tspan><tspan x="73.736" y="0" fill="#5A5A5A" font-family="'HelveticaNeue'" font-size="16.1884">e</tspan></text>
	</g>
</g>
<g>
	<defs>
		<rect id="SVGID_27_" x="-78.172" y="-1.978" width="647.534" height="388.521"/>
	</defs>
	<clipPath id="SVGID_28_">
		<use xlink:href="#SVGID_27_"  overflow="visible"/>
	</clipPath>
	<rect x="123.283" y="25.003" clip-path="url(#SVGID_28_)" fill="#41847C" width="8.994" height="8.994"/>
</g>
<g>
	<defs>
		<rect id="SVGID_29_" x="-78.172" y="-1.978" width="647.534" height="388.521"/>
	</defs>
	<clipPath id="SVGID_30_">
		<use xlink:href="#SVGID_29_"  overflow="visible"/>
	</clipPath>
	<g clip-path="url(#SVGID_30_)">
		<text transform="matrix(1 0 0 1 135.0347 36.1929)"><tspan x="0" y="0" fill="#5A5A5A" font-family="'HelveticaNeue'" font-size="16.1884">Ro</tspan><tspan x="19.798" y="0" fill="#5A5A5A" font-family="'HelveticaNeue'" font-size="16.1884">n</tspan><tspan x="28.799" y="0" fill="#5A5A5A" font-family="'HelveticaNeue'" font-size="16.1884">a</tspan><tspan x="37.783" y="0" fill="#5A5A5A" font-family="'HelveticaNeue'" font-size="16.1884">l</tspan><tspan x="41.377" y="0" fill="#5A5A5A" font-family="'HelveticaNeue'" font-size="16.1884">d</tspan><tspan x="50.377" y="0" fill="#5A5A5A" font-family="'HelveticaNeue'" font-size="16.1884"> </tspan><tspan x="55.768" y="0" fill="#5A5A5A" font-family="'HelveticaNeue'" font-size="16.1884">R</tspan><tspan x="66.565" y="0" fill="#5A5A5A" font-family="'HelveticaNeue'" font-size="16.1884">ea</tspan><tspan x="84.535" y="0" fill="#5A5A5A" font-family="'HelveticaNeue'" font-size="16.1884">g</tspan><tspan x="93.535" y="0" fill="#5A5A5A" font-family="'HelveticaNeue'" font-size="16.1884">a</tspan><tspan x="102.519" y="0" fill="#5A5A5A" font-family="'HelveticaNeue'" font-size="16.1884">n</tspan></text>
	</g>
</g>
<g>
	<defs>
		<rect id="SVGID_31_" x="-78.172" y="-1.978" width="647.534" height="388.521"/>
	</defs>
	<clipPath id="SVGID_32_">
		<use xlink:href="#SVGID_31_"  overflow="visible"/>
	</clipPath>
	<rect x="267.18" y="25.003" clip-path="url(#SVGID_32_)" fill="#D8B365" width="8.993" height="8.994"/>
</g>
<g>
	<defs>
		<rect id="SVGID_33_" x="-78.172" y="-1.978" width="647.534" height="388.521"/>
	</defs>
	<clipPath id="SVGID_34_">
		<use xlink:href="#SVGID_33_"  overflow="visible"/>
	</clipPath>
	<g clip-path="url(#SVGID_34_)">
		<text transform="matrix(1 0 0 1 279.4062 36.1929)"><tspan x="0" y="0" fill="#5A5A5A" font-family="'HelveticaNeue'" font-size="16.1884">J</tspan><tspan x="8.984" y="0" fill="#5A5A5A" font-family="'HelveticaNeue'" font-size="16.1884">i</tspan><tspan x="12.578" y="0" fill="#5A5A5A" font-family="'HelveticaNeue'" font-size="16.1884">mm</tspan><tspan x="41.328" y="0" fill="#5A5A5A" font-family="'HelveticaNeue'" font-size="16.1884">y</tspan><tspan x="50.313" y="0" fill="#5A5A5A" font-family="'HelveticaNeue'" font-size="16.1884"> C</tspan><tspan x="64.721" y="0" fill="#5A5A5A" font-family="'HelveticaNeue'" font-size="16.1884">a</tspan><tspan x="73.705" y="0" fill="#5A5A5A" font-family="'HelveticaNeue'" font-size="16.1884">r</tspan><tspan x="79.096" y="0" fill="#5A5A5A" font-family="'HelveticaNeue'" font-size="16.1884">te</tspan><tspan x="93.47" y="0" fill="#5A5A5A" font-family="'HelveticaNeue'" font-size="16.1884">r</tspan></text>
	</g>
</g>
</svg>
