<?xml version="1.0" encoding="utf-8"?>
<!-- Generator: Adobe Illustrator 16.0.4, SVG Export Plug-In . SVG Version: 6.00 Build 0)  -->
<!DOCTYPE svg PUBLIC "-//W3C//DTD SVG 1.1//EN" "http://www.w3.org/Graphics/SVG/1.1/DTD/svg11.dtd">
<svg version="1.1" id="Layer_1" xmlns="http://www.w3.org/2000/svg" xmlns:xlink="http://www.w3.org/1999/xlink" x="0px" y="0px"
	 width="333.724px" height="285.416px" viewBox="0 0 333.724 285.416" enable-background="new 0 0 333.724 285.416"
	 xml:space="preserve">
<rect y="2.083" fill="#FFFFFF" width="328.646" height="285.417"/>
<rect x="18.099" y="8.333" fill="none" width="315.625" height="22.917"/>
<text transform="matrix(1 0 0 1 18.0991 23.4321)"><tspan x="0" y="0" fill="#2A2A2A" font-family="'Helvetica-Bold'" font-size="21">Most-Liked Modern Presidents</tspan><tspan x="305.711" y="0" font-family="'Helvetica'" font-size="21"> </tspan></text>
<rect x="47.266" y="59.375" fill="none" width="243.88" height="10.417"/>
<text transform="matrix(1 0 0 1 47.2661 68.0029)" fill="#2A2A2A" font-family="'Helvetica-Bold'" font-size="12">Experts View              vs            Public Polls</text>
<rect x="8.985" y="93.75" fill="none" width="11.979" height="191.666"/>
<text transform="matrix(1 0 0 1 8.9849 106.6919)"><tspan x="0" y="0" font-family="'Helvetica-Bold'" font-size="18">1</tspan><tspan x="0" y="43.2" font-family="'Helvetica-Bold'" font-size="18">2</tspan><tspan x="0" y="86.4" font-family="'Helvetica-Bold'" font-size="18">3</tspan><tspan x="0" y="129.6" font-family="'Helvetica-Bold'" font-size="18">4</tspan><tspan x="0" y="172.8" font-family="'Helvetica-Bold'" font-size="18">5</tspan></text>
<rect x="50.912" y="93.75" fill="none" width="46.875" height="17.708"/>
<text transform="matrix(1 0 0 1 50.9116 106.6919)" fill="#292665" font-family="'Helvetica-Bold'" font-size="18">FDR</text>
<rect x="215.649" y="180.729" fill="none" width="46.876" height="13.281"/>
<text transform="matrix(1 0 0 1 215.6489 193.6709)" fill="#292665" font-family="'Helvetica-Bold'" font-size="18">FDR</text>
<rect x="47.266" y="135.938" fill="none" width="84.896" height="13.542"/>
<text transform="matrix(1 0 0 1 47.2661 148.8794)" fill="#18689E" font-family="'Helvetica-Bold'" font-size="18">Truman</text>
<rect x="50.912" y="180.729" fill="none" width="107.032" height="26.562"/>
<text transform="matrix(1 0 0 1 50.9116 193.6709)" fill="#F06622" font-family="'Helvetica-Bold'" font-size="18">Eisenhower</text>
<rect x="50.911" y="223.937" fill="none" width="46.875" height="13.042"/>
<text transform="matrix(1 0 0 1 50.9111 236.8784)" fill="#CF4A27" font-family="'Helvetica-Bold'" font-size="18">JFK</text>
<rect x="50.912" y="267.188" fill="none" width="89.064" height="13.02"/>
<text transform="matrix(1 0 0 1 50.9116 280.1299)" fill="#25235A" font-family="'Helvetica-Bold'" font-size="18">Clinton</text>
<rect x="215.649" y="93.75" fill="none" width="46.875" height="17.709"/>
<text transform="matrix(1 0 0 1 215.6489 106.6924)" fill="#CF4A27" font-family="'Helvetica-Bold'" font-size="18">JFK</text>
<rect x="215.649" y="137.229" fill="none" width="127.189" height="14.854"/>
<text transform="matrix(1 0 0 1 215.6489 150.1709)" fill="#F06622" font-family="'Helvetica-Bold'" font-size="18">Eisenhower</text>
<rect x="215.649" y="223.937" fill="none" width="108.438" height="15.646"/>
<text transform="matrix(1 0 0 1 215.6489 236.8784)" fill="#941A1D" font-family="'Helvetica-Bold'" font-size="18">H.W. Bush</text>
<rect x="215.649" y="266.666" fill="none" width="46.876" height="14.064"/>
<text transform="matrix(1 0 0 1 215.6489 279.6074)" fill="#CEBE2C" font-family="'Helvetica-Bold'" font-size="18">LBJ</text>
</svg>
